{"glyphs":{"0":{"ha":676,"x_min":44,"x_max":631,"o":"m 463 763 q 553 671 515 728 q 610 546 590 615 q 631 399 631 476 q 610 252 631 322 q 553 126 590 182 q 463 36 517 71 q 338 -1 404 -1 q 214 36 272 -1 q 165 75 188 53 q 122 126 142 97 q 65 252 85 182 q 44 399 44 322 q 65 546 44 476 q 122 671 85 615 q 165 723 142 700 q 214 763 188 746 q 338 799 274 799 q 463 763 403 799 m 436 208 q 475 296 461 246 q 489 400 489 346 q 475 504 489 454 q 436 592 461 554 q 420 613 429 601 q 399 634 411 624 q 371 651 386 644 q 338 658 356 658 q 304 651 319 658 q 276 634 289 644 q 254 613 264 624 q 239 592 244 601 q 200 504 214 554 q 186 400 186 454 q 200 296 186 346 q 239 208 214 246 q 254 188 244 199 q 276 166 264 176 q 304 149 289 156 q 338 142 319 142 q 371 149 356 142 q 399 166 386 156 q 420 188 411 176 q 436 208 429 199 z "},"1":{"ha":265,"x_min":61,"x_max":203,"o":"m 61 10 l 61 788 l 203 788 l 203 10 l 61 10 z "},"2":{"ha":581,"x_min":39,"x_max":544,"o":"m 517 649 q 533 519 544 585 q 476 400 522 453 l 254 149 l 517 149 l 517 7 l 63 7 l 61 146 l 369 496 q 386 594 408 539 q 306 649 363 646 l 303 649 q 217 613 253 649 q 181 528 181 578 l 39 528 q 60 630 39 582 q 116 713 81 678 q 199 769 151 749 q 301 790 247 790 l 308 790 q 431 751 376 788 q 514 651 486 714 l 517 649 z "},"3":{"ha":581,"x_min":25,"x_max":538,"o":"m 447 425 q 513 338 489 389 q 535 228 538 286 q 510 133 532 178 q 453 56 489 89 q 372 5 418 24 q 272 -14 325 -14 l 263 -14 q 115 36 179 -10 q 25 154 51 82 l 158 203 q 200 151 169 171 q 268 128 231 131 q 315 134 293 126 q 354 156 338 142 q 381 190 371 171 q 392 232 392 210 q 359 310 393 276 q 275 346 325 343 q 226 339 251 347 l 178 472 q 260 489 217 486 l 260 490 q 333 514 303 488 q 364 575 364 540 q 340 638 367 610 q 269 669 313 667 q 217 658 240 669 q 179 622 193 646 l 57 696 q 149 783 90 751 q 275 811 207 814 q 365 790 322 808 q 440 739 408 772 q 491 661 474 704 q 506 571 508 618 q 446 426 501 489 l 447 425 z "},"4":{"ha":657,"x_min":10,"x_max":594,"o":"m 394 786 l 594 786 l 594 10 l 453 10 l 453 149 l 10 149 l 394 786 m 453 606 l 263 290 l 453 290 l 453 606 z "},"5":{"ha":642,"x_min":38,"x_max":603,"o":"m 319 567 q 429 544 378 567 q 519 484 481 522 q 581 394 558 446 q 603 285 603 343 q 581 175 603 226 q 519 85 558 124 q 429 25 481 47 q 319 3 378 3 q 197 31 254 3 q 97 110 139 58 l 210 197 q 258 158 229 172 q 319 143 288 143 q 374 154 349 143 q 417 184 399 165 q 447 228 436 203 q 458 282 458 253 q 447 336 458 311 q 417 380 436 361 q 374 410 399 399 q 319 421 349 421 q 226 386 268 421 q 211 369 218 378 q 197 350 204 361 l 176 314 l 38 315 l 119 788 l 504 788 l 504 646 l 239 646 l 222 546 q 319 563 268 563 l 319 567 z "},"6":{"ha":608,"x_min":44,"x_max":574,"o":"m 308 525 q 411 504 363 525 q 496 447 460 483 q 553 363 532 411 q 574 260 574 314 q 553 157 574 206 q 496 73 532 108 q 411 17 460 38 q 308 -4 363 -4 q 206 17 254 -4 q 122 73 158 38 q 65 157 86 108 q 44 260 44 206 q 128 622 44 489 q 257 747 179 704 q 450 792 342 792 l 450 650 q 406 648 433 650 q 347 633 378 646 q 284 593 315 621 q 231 514 253 565 q 308 525 268 525 m 308 138 q 395 173 360 138 q 431 260 431 208 q 395 347 431 311 q 310 382 360 382 q 223 347 258 382 q 188 261 188 311 q 223 174 188 210 q 308 139 258 139 l 308 138 z "},"7":{"ha":449,"x_min":28,"x_max":431,"o":"m 28 792 l 431 792 l 226 8 l 81 8 l 85 26 l 247 650 l 28 650 l 28 792 z "},"8":{"ha":597,"x_min":44,"x_max":551,"o":"m 465 444 q 528 360 506 408 q 551 254 551 313 q 531 156 551 201 q 477 75 511 110 q 397 21 443 40 q 297 1 350 1 q 199 21 244 1 q 119 75 153 40 q 65 156 85 110 q 44 254 44 201 q 67 360 44 313 q 131 444 90 408 q 81 583 81 503 q 98 667 81 628 q 144 737 115 707 q 213 784 174 767 q 297 801 253 801 q 383 784 343 801 q 451 737 422 767 q 498 667 481 707 q 515 583 515 628 q 465 444 515 503 m 297 658 q 245 637 267 658 q 224 583 224 615 q 245 530 224 551 q 297 508 267 508 q 351 530 329 508 q 374 583 374 551 q 351 637 374 615 q 297 658 329 658 m 297 142 q 376 174 343 142 q 408 253 408 207 q 376 331 408 299 q 297 364 343 364 q 219 331 251 364 q 186 253 186 299 q 219 174 186 207 q 297 142 251 142 z "},"9":{"ha":608,"x_min":36,"x_max":564,"o":"m 300 794 q 403 774 354 794 q 487 717 451 753 q 543 633 522 681 q 564 531 564 585 q 481 168 564 301 q 353 43 431 88 q 263 9 311 21 q 158 -3 214 -3 l 158 140 q 203 142 175 140 q 262 157 231 144 q 324 197 293 169 q 379 276 356 225 q 340 267 360 271 q 300 264 321 264 q 197 285 246 264 q 113 342 149 306 q 57 426 78 378 q 36 529 36 475 q 57 632 36 583 q 113 716 78 681 q 197 772 149 751 q 300 793 246 793 l 300 794 m 301 408 q 388 444 353 408 q 424 531 424 481 q 388 617 424 581 q 301 653 353 653 q 215 617 250 653 q 179 531 179 581 q 215 444 179 481 q 300 408 250 408 l 301 408 z "},"\u0000":{"ha":0,"x_min":0,"x_max":0,"o":""},"\r":{"ha":0,"x_min":0,"x_max":0,"o":""}," ":{"ha":368,"x_min":0,"x_max":0,"o":""},"\n":{"ha":0,"x_min":0,"x_max":0,"o":""},"!":{"ha":258,"x_min":58,"x_max":200,"o":"m 58 186 l 58 778 l 200 778 l 200 186 l 58 186 m 129 -3 q 79 17 100 -3 q 58 67 58 38 q 79 116 58 96 q 129 136 100 136 q 178 116 158 136 q 199 67 199 96 q 178 17 199 38 q 129 -3 158 -3 z "},"#":{"ha":732,"x_min":46,"x_max":692,"o":"m 636 511 l 657 511 l 657 369 l 606 369 l 603 351 l 657 351 l 657 208 l 571 208 l 514 -58 l 375 -28 l 425 208 l 253 208 l 196 -58 l 57 -28 l 108 208 l 46 208 l 46 351 l 139 351 l 142 369 l 46 369 l 46 511 l 174 511 l 235 793 l 374 764 l 319 511 l 492 511 l 553 793 l 692 764 l 636 511 m 460 369 l 288 369 l 285 351 l 457 351 l 460 369 z "},"$":{"ha":656,"x_min":40,"x_max":619,"o":"m 514 404 q 568 360 547 383 q 601 312 589 336 q 616 265 613 288 q 619 222 619 242 q 558 90 615 146 q 410 14 500 33 l 410 -71 l 268 -71 l 268 10 q 154 49 206 21 q 69 121 103 78 l 183 207 q 217 176 196 189 q 265 156 239 163 l 265 336 q 208 353 236 343 q 153 379 179 364 q 94 424 117 400 q 60 472 72 447 q 44 522 49 497 q 42 567 40 546 q 60 642 43 607 q 108 706 78 678 q 178 752 138 733 q 265 779 218 771 l 265 815 l 408 815 l 408 775 q 503 740 460 764 q 578 681 547 717 l 469 588 q 443 610 458 600 q 408 628 428 621 l 408 449 q 465 428 439 439 q 513 404 490 418 l 514 404 m 268 633 q 208 602 231 622 q 185 560 186 582 q 268 483 182 511 l 268 633 m 411 163 q 458 192 442 174 q 476 229 475 210 q 410 299 479 271 l 410 163 l 411 163 z "},"%":{"ha":1082,"x_min":31,"x_max":1053,"o":"m 347 -112 l 226 -39 l 782 876 l 903 803 l 347 -112 m 463 558 q 445 474 463 514 q 399 406 428 435 q 331 359 369 376 q 247 342 292 342 q 163 359 203 342 q 94 406 124 376 q 48 474 65 435 q 31 558 31 514 q 48 642 31 603 q 94 710 65 681 q 163 756 124 739 q 247 774 203 774 q 331 756 292 774 q 399 710 369 739 q 445 642 428 681 q 463 558 463 603 m 174 558 q 195 506 174 528 q 247 485 217 485 q 298 506 276 485 q 319 558 319 528 q 298 609 319 588 q 247 631 276 631 q 195 609 217 631 q 174 558 174 588 m 836 408 q 920 392 881 408 q 989 346 960 375 q 1035 277 1018 317 q 1053 193 1053 238 q 1035 110 1053 149 q 989 42 1018 71 q 920 -5 960 13 q 836 -22 881 -22 q 753 -5 792 -22 q 685 42 714 13 q 638 110 656 71 q 621 193 621 149 q 638 277 621 238 q 685 346 656 317 q 753 392 714 375 q 836 408 792 408 m 836 119 q 888 141 867 119 q 910 193 910 163 q 888 245 910 224 q 836 267 867 267 q 785 245 807 267 q 764 193 764 224 q 785 141 764 163 q 836 119 807 119 z "},"&":{"ha":718,"x_min":42,"x_max":688,"o":"m 589 114 q 688 92 642 92 l 688 -51 q 472 15 585 -51 q 373 -18 419 -11 q 303 -25 326 -25 q 224 -21 265 -25 q 146 1 183 -17 q 109 24 128 10 q 76 59 90 38 q 51 110 61 81 q 42 181 42 140 q 100 319 42 258 q 122 338 111 329 q 143 356 132 347 q 99 450 119 399 q 79 550 79 501 q 97 638 79 597 q 146 710 115 679 q 217 758 176 740 q 304 775 258 775 q 392 758 351 775 q 464 710 433 740 q 513 638 494 679 q 531 550 531 597 q 450 378 531 450 q 401 342 426 358 q 349 310 376 325 q 407 248 376 278 q 469 193 438 218 q 514 356 514 253 l 656 356 q 637 217 656 274 q 590 119 618 160 l 589 114 m 306 631 q 247 606 271 631 q 222 547 222 582 q 233 499 222 531 q 267 425 243 468 q 358 485 329 458 q 388 549 388 511 q 363 608 388 583 q 304 632 339 632 l 306 631 m 307 118 q 318 118 311 118 q 336 119 325 118 q 278 175 307 146 q 225 236 250 204 q 194 206 201 219 q 186 179 186 193 q 194 140 186 149 q 208 128 201 131 q 253 117 226 119 q 306 115 279 115 l 307 118 z "},"(":{"ha":458,"x_min":43,"x_max":425,"o":"m 425 668 q 331 647 375 668 q 255 588 288 625 q 203 501 222 551 q 185 394 185 451 q 203 288 185 338 q 255 201 222 238 q 331 142 288 164 q 425 121 375 121 l 425 -21 q 276 11 346 -21 q 153 103 207 43 q 72 236 100 161 q 43 394 43 311 q 72 553 43 478 q 153 686 100 628 q 276 778 207 746 q 425 810 346 810 l 425 668 l 425 668 z "},")":{"ha":458,"x_min":35,"x_max":415,"o":"m 307 686 q 388 553 360 628 q 415 394 415 478 q 388 236 415 311 q 307 103 360 161 q 183 11 253 43 q 35 -21 113 -21 l 35 121 q 128 142 85 121 q 205 201 172 164 q 256 288 238 238 q 275 394 275 338 q 256 501 275 451 q 205 588 238 551 q 128 647 172 625 q 35 668 85 668 l 35 810 q 183 778 113 810 q 307 686 253 746 z "},",":{"ha":225,"x_min":25,"x_max":190,"o":"m 158 228 q 190 167 190 206 l 190 164 l 190 160 q 188 150 190 156 l 188 147 l 188 143 l 188 140 q 187 138 188 139 q 186 136 186 138 l 119 -33 l 25 8 l 90 101 q 88 103 89 103 q 86 104 88 103 q 81 107 83 106 q 76 110 79 108 q 72 113 74 113 q 69 117 71 114 q 65 120 67 119 q 63 124 64 121 q 60 125 61 125 q 58 126 60 125 q 56 131 58 128 q 53 133 53 131 q 49 136 50 136 q 47 140 47 138 l 47 143 l 47 147 l 47 153 l 47 158 q 79 219 47 199 q 86 225 81 222 l 89 225 q 121 232 101 232 q 153 225 140 232 l 157 225 q 160 223 158 224 q 164 219 161 222 l 158 228 z "},".":{"ha":199,"x_min":26,"x_max":179,"o":"m 179 168 l 179 161 q 172 129 179 146 q 169 122 169 124 q 167 119 168 119 q 165 115 167 118 q 150 100 158 107 q 145 97 147 97 q 140 93 143 96 q 136 92 139 92 q 104 86 124 86 q 83 89 90 86 l 81 89 q 69 92 72 92 q 67 93 69 92 q 62 97 64 96 q 57 100 60 97 q 42 115 49 107 q 38 120 39 118 q 35 125 36 122 q 33 129 33 126 q 31 139 31 135 l 31 142 q 26 164 26 151 q 33 196 26 179 q 36 203 36 199 q 38 206 38 204 q 40 208 39 207 q 47 215 43 213 q 50 219 49 218 q 53 222 51 219 q 101 240 75 240 q 121 236 110 240 l 125 236 q 128 235 125 236 q 138 229 133 232 q 147 224 143 226 q 150 220 149 221 q 153 217 151 219 q 160 206 157 211 q 167 196 164 201 q 174 175 172 182 l 179 168 z "},"<":{"ha":525,"x_min":31,"x_max":481,"o":"m 481 497 l 233 382 l 481 261 l 481 103 l 31 325 l 31 446 l 481 653 l 481 497 z "},">":{"ha":525,"x_min":44,"x_max":494,"o":"m 494 446 l 494 325 l 44 103 l 44 261 l 292 382 l 44 497 l 44 653 l 494 446 z "},"?":{"ha":572,"x_min":15,"x_max":536,"o":"m 272 786 q 375 765 326 786 q 459 708 424 744 q 515 624 494 672 q 536 521 536 575 q 492 392 536 444 q 452 355 472 369 q 413 329 432 340 q 372 300 381 310 q 364 274 364 290 l 364 189 l 221 189 l 221 274 q 233 341 221 313 q 262 390 244 369 q 300 425 279 411 q 338 450 321 439 q 383 484 372 472 q 394 521 394 496 q 359 606 394 571 q 274 642 324 642 q 196 615 229 642 q 154 544 163 588 l 15 574 q 48 657 25 618 q 107 724 71 696 q 185 768 142 753 q 275 783 229 783 l 272 786 m 282 -1 q 233 19 253 -1 q 213 69 213 40 q 233 119 213 99 q 282 139 253 139 q 332 119 311 139 q 353 69 353 99 q 332 19 353 40 q 282 -1 311 -1 z "},"@":{"ha":929,"x_min":42,"x_max":888,"o":"m 464 790 q 628 757 551 790 q 763 666 706 724 q 854 531 821 608 q 888 367 888 454 q 882 299 888 346 q 853 203 876 251 q 776 112 824 143 q 665 81 728 81 q 568 129 604 81 q 539 193 547 157 q 375 118 461 118 q 308 133 342 118 q 464 86 376 86 l 464 -57 q 299 -24 376 -57 q 165 67 222 10 q 75 202 108 125 q 42 367 42 279 q 75 531 42 454 q 165 666 108 608 q 299 757 222 724 q 464 790 376 790 m 375 261 q 444 299 406 261 q 518 407 482 338 q 494 458 510 438 q 469 482 479 478 q 438 452 460 478 q 397 379 417 426 q 375 303 378 335 q 375 258 372 271 l 375 261 m 725 268 q 741 320 736 292 q 746 371 746 349 q 724 481 746 429 q 663 570 701 532 q 574 631 625 608 q 464 653 522 653 q 354 631 406 653 q 264 570 303 608 q 203 481 225 532 q 181 371 181 429 q 203 263 181 313 q 263 174 225 213 q 260 175 261 175 q 258 176 260 175 q 229 283 229 218 q 246 389 229 332 q 292 497 263 446 q 375 594 329 560 q 469 628 421 628 q 603 549 544 628 q 615 533 610 542 q 625 517 619 525 l 707 492 q 697 452 707 490 q 681 363 688 414 q 671 268 669 300 q 675 225 672 236 q 700 235 688 226 q 724 265 713 243 l 725 268 z "},"A":{"ha":764,"x_min":3,"x_max":764,"o":"m 764 0 l 613 0 l 525 242 l 383 636 l 383 636 l 153 0 l 3 0 l 11 25 l 283 779 l 483 779 l 658 290 l 754 25 l 764 0 z "},"B":{"ha":668,"x_min":53,"x_max":633,"o":"m 554 415 q 612 341 590 385 q 633 246 633 297 l 633 219 q 616 133 633 174 q 568 63 599 93 q 497 15 538 32 q 410 -3 456 -3 l 53 -3 l 53 139 l 410 139 q 468 163 444 139 q 492 221 492 186 l 492 247 q 468 305 492 281 q 410 329 444 329 l 194 329 l 53 329 l 53 776 l 378 776 q 465 759 424 776 q 536 711 506 742 q 584 640 567 681 q 601 553 601 599 q 556 418 601 476 l 554 415 m 376 468 q 435 492 411 468 q 458 550 458 515 q 435 608 458 585 q 376 632 411 632 l 208 632 l 208 469 l 376 469 l 376 468 z "},"C":{"ha":631,"x_min":19,"x_max":615,"o":"m 404 125 q 536 165 476 125 l 615 47 q 403 -18 521 -18 q 253 13 324 -18 q 128 103 183 44 q 58 202 85 147 q 21 319 32 257 l 167 319 q 199 242 176 278 q 253 181 222 207 q 323 140 285 154 q 403 125 361 125 l 404 125 m 404 649 q 320 633 360 649 q 249 589 281 617 q 194 524 217 561 q 164 442 172 486 l 19 442 q 128 672 36 575 q 253 761 183 731 q 403 792 324 792 q 615 726 521 792 l 536 608 q 404 650 478 650 l 404 649 z "},"D":{"ha":671,"x_min":56,"x_max":628,"o":"m 354 778 q 461 756 411 778 q 548 697 511 735 q 606 610 585 660 q 628 503 628 560 l 628 275 q 606 168 628 218 q 548 81 585 118 q 461 22 511 43 q 354 0 411 0 l 56 0 l 56 142 l 354 142 q 405 152 381 142 q 447 181 429 163 q 476 223 465 199 q 486 275 486 247 l 486 503 q 476 555 486 531 q 447 597 465 579 q 405 626 429 615 q 354 636 381 636 l 197 636 l 197 282 l 56 282 l 56 778 l 356 778 l 354 778 z "},"E":{"ha":606,"x_min":47,"x_max":564,"o":"m 189 635 l 189 458 l 564 458 l 564 317 l 189 317 l 189 317 l 47 317 l 47 776 l 189 776 l 189 776 l 564 776 l 564 635 l 189 635 m 564 142 l 564 0 l 189 0 l 189 0 l 47 0 l 47 142 l 564 142 z "},"F":{"ha":608,"x_min":61,"x_max":579,"o":"m 579 776 l 579 635 l 203 635 l 203 0 l 61 0 l 61 778 l 203 778 l 203 778 l 579 776 m 329 317 l 329 458 l 579 458 l 579 317 l 329 317 z "},"G":{"ha":718,"x_min":26,"x_max":682,"o":"m 682 364 l 682 -14 l 540 -14 l 540 3 q 478 -14 510 -8 q 414 -19 447 -19 q 265 12 335 -19 q 139 101 194 43 q 56 233 85 160 q 26 386 26 306 q 56 541 26 468 q 139 672 85 614 q 265 761 194 731 q 414 792 335 792 q 626 726 532 792 l 547 608 q 415 650 489 650 q 320 629 365 650 q 242 573 275 608 q 189 490 208 538 q 169 388 169 442 q 189 285 169 333 q 242 202 208 238 q 320 146 275 167 q 415 125 365 125 q 542 164 481 125 l 542 365 l 682 364 m 314 283 l 314 425 l 461 425 l 461 283 l 314 283 z "},"H":{"ha":713,"x_min":61,"x_max":650,"o":"m 61 778 l 203 778 l 203 0 l 61 0 l 61 778 m 650 778 l 650 0 l 508 0 l 508 318 l 351 318 l 351 460 l 508 460 l 508 778 l 650 778 z "},"I":{"ha":336,"x_min":32,"x_max":303,"o":"m 303 776 l 303 635 l 32 635 l 32 776 l 97 776 l 97 776 l 240 776 l 240 776 l 303 776 m 240 142 l 303 142 l 303 -1 l 32 -1 l 32 142 l 97 142 l 97 542 l 240 542 l 240 142 z "},"J":{"ha":338,"x_min":19,"x_max":293,"o":"m 33 635 l 33 776 l 292 776 l 292 635 l 33 635 m 293 543 l 293 275 q 272 169 293 218 q 213 83 250 119 q 126 24 176 46 q 19 3 76 3 l 19 144 q 70 155 46 144 q 113 183 94 165 q 141 224 131 200 q 151 275 151 247 l 151 543 l 293 543 z "},"K":{"ha":696,"x_min":63,"x_max":697,"o":"m 350 358 l 204 185 l 204 0 l 63 0 l 63 778 l 204 778 l 204 407 l 240 450 l 513 778 l 697 778 l 658 732 l 350 358 m 647 42 l 679 -1 l 503 -1 l 349 208 l 440 318 l 647 42 z "},"L":{"ha":547,"x_min":61,"x_max":542,"o":"m 61 0 l 61 778 l 203 778 l 203 0 l 61 0 m 322 0 l 322 142 l 542 142 l 542 0 l 322 0 z "},"M":{"ha":892,"x_min":61,"x_max":831,"o":"m 264 776 l 508 169 l 354 169 l 203 547 l 203 0 l 61 0 l 61 776 l 264 776 m 831 778 l 831 1 l 688 1 l 688 610 l 564 260 l 482 456 l 597 776 l 831 778 z "},"N":{"ha":692,"x_min":61,"x_max":636,"o":"m 636 778 l 636 183 l 494 501 l 494 778 l 636 778 m 263 776 l 624 0 l 460 0 l 203 563 l 203 0 l 61 0 l 61 776 l 263 776 z "},"O":{"ha":825,"x_min":21,"x_max":808,"o":"m 417 642 q 325 625 368 642 q 248 578 282 608 q 192 508 214 549 q 164 421 169 468 l 21 421 q 60 563 26 497 q 147 678 93 629 q 268 755 200 726 q 414 783 336 783 q 560 755 492 783 q 683 678 629 726 q 769 563 736 629 q 808 421 801 497 l 664 421 q 635 508 657 468 q 581 578 614 549 q 504 625 547 608 q 413 642 461 642 l 417 642 m 417 135 q 562 181 499 135 q 653 297 625 226 l 803 297 q 751 176 788 232 q 664 80 715 121 q 549 16 613 39 q 417 -7 486 -7 q 284 16 347 -7 q 169 80 221 39 q 82 176 118 121 q 31 297 46 232 l 181 297 q 272 181 208 226 q 417 135 335 135 z "},"P":{"ha":614,"x_min":61,"x_max":597,"o":"m 349 778 q 445 758 400 778 q 524 706 490 739 q 578 627 558 672 q 597 531 597 582 q 578 434 597 479 q 524 355 558 389 q 445 301 490 321 q 349 282 400 282 l 311 282 l 311 425 l 349 425 q 424 456 393 425 q 454 531 454 486 q 424 605 454 574 q 349 636 393 636 l 203 636 l 203 0 l 61 0 l 61 778 l 349 778 l 349 778 z "},"Q":{"ha":847,"x_min":25,"x_max":819,"o":"m 818 388 q 781 220 818 299 q 678 86 744 142 l 779 -42 l 597 -42 l 381 235 l 492 322 l 590 199 q 616 227 604 213 q 639 258 628 242 q 675 389 675 318 q 656 488 675 442 q 601 568 636 533 q 521 622 567 603 q 422 642 475 642 q 324 622 369 642 q 243 568 278 603 q 189 488 208 533 q 169 389 169 442 q 187 295 169 339 q 235 217 204 251 q 308 162 267 183 q 399 136 350 140 l 399 -7 q 253 31 321 -3 q 134 117 185 64 q 54 240 83 169 q 25 389 25 310 q 56 543 25 471 q 142 669 88 615 q 268 755 196 724 q 422 786 340 786 q 576 755 504 786 q 703 669 649 724 q 788 543 757 615 q 819 389 819 471 l 818 388 z "},"R":{"ha":631,"x_min":60,"x_max":607,"o":"m 607 0 l 442 0 l 276 281 l 275 281 l 275 424 l 347 424 l 358 424 q 426 458 399 428 q 453 529 453 489 q 422 603 453 572 q 347 635 392 635 l 203 635 l 203 -1 l 60 -1 l 60 776 l 347 776 q 444 757 399 776 q 523 704 489 738 q 576 626 557 671 q 596 529 596 581 q 550 385 596 449 q 433 297 504 322 l 607 0 z "},"S":{"ha":626,"x_min":26,"x_max":604,"o":"m 140 372 q 81 417 104 393 q 47 465 58 440 q 31 515 35 490 q 28 560 26 539 q 58 652 31 608 q 131 725 85 696 q 224 766 172 753 q 332 776 276 779 q 464 747 403 774 q 564 675 525 719 l 457 581 q 402 618 438 604 q 325 635 367 632 q 261 629 292 636 q 207 607 231 622 q 183 586 196 600 q 169 553 169 572 q 188 510 168 529 q 253 476 208 492 l 253 329 q 194 347 224 336 q 138 372 165 357 l 140 372 m 497 400 q 553 356 532 379 q 585 308 574 332 q 601 260 597 283 q 603 217 604 236 q 574 125 600 168 q 500 51 547 82 q 315 0 421 0 l 299 0 q 158 33 222 3 q 56 115 94 64 l 169 201 q 224 160 188 176 q 304 142 261 144 q 369 147 338 140 q 424 169 400 154 q 447 190 433 176 q 461 224 460 204 q 378 300 464 271 l 378 447 q 444 427 414 439 q 499 400 475 415 l 497 400 z "},"T":{"ha":525,"x_min":1,"x_max":524,"o":"m 196 0 l 196 543 l 338 543 l 338 0 l 196 0 m 524 776 l 524 635 l 1 635 l 1 776 l 196 776 l 196 776 l 338 776 l 338 776 l 524 776 z "},"U":{"ha":779,"x_min":47,"x_max":731,"o":"m 189 342 q 224 229 189 279 q 313 157 258 179 l 313 8 q 207 52 256 21 q 123 128 158 83 q 67 226 88 172 q 47 342 47 281 l 47 778 l 189 778 l 189 342 m 731 776 l 731 342 q 708 219 731 276 q 647 117 686 163 q 555 42 608 72 q 440 3 501 13 l 440 149 q 547 218 504 165 q 589 342 589 271 l 589 776 l 731 776 z "},"V":{"ha":763,"x_min":0,"x_max":761,"o":"m 425 0 l 425 0 l 281 0 l 281 0 l 0 778 l 151 778 l 381 142 l 425 0 m 761 778 l 513 89 l 435 292 l 610 778 l 761 778 z "},"W":{"ha":1164,"x_min":3,"x_max":1165,"o":"m 833 0 l 833 0 l 683 0 l 683 0 l 583 279 l 482 0 l 482 0 l 282 0 l 282 0 l 11 754 l 3 779 l 153 779 l 382 143 l 382 143 l 508 490 l 413 756 l 413 756 l 403 781 l 554 781 l 650 514 l 658 493 l 658 492 l 658 490 l 771 174 l 771 174 l 771 174 l 833 0 m 1165 778 l 1157 753 l 918 93 l 840 297 l 1014 778 l 1165 778 z "},"X":{"ha":785,"x_min":-4,"x_max":782,"o":"m 486 399 l 767 1 l 592 1 l 394 282 l 175 1 l -4 1 l 310 403 l 44 779 l 219 779 l 331 619 l 342 604 l 343 603 l 403 519 l 403 519 l 488 399 l 486 399 m 558 492 l 475 615 l 603 779 l 782 779 l 558 492 z "},"Y":{"ha":693,"x_min":-8,"x_max":703,"o":"m 240 674 l 419 386 l 418 385 l 418 0 l 275 0 l 275 376 l -8 778 l 79 779 l 165 779 l 240 674 m 703 779 l 499 497 l 414 625 l 414 625 l 522 779 l 703 779 z "},"Z":{"ha":606,"x_min":3,"x_max":600,"o":"m 246 144 l 550 142 l 549 0 l 3 3 l 299 532 l 463 532 l 246 144 m 169 635 l 85 635 l 85 776 l 600 776 l 519 635 l 168 635 l 169 635 z "},"[":{"ha":331,"x_min":61,"x_max":286,"o":"m 203 636 l 203 143 l 286 143 l 286 1 l 61 1 l 61 779 l 286 779 l 286 636 l 203 636 z "},"\\":{"ha":425,"x_min":8,"x_max":413,"o":"m 276 -60 l 8 804 l 144 847 l 413 -18 l 276 -60 z "},"]":{"ha":331,"x_min":44,"x_max":269,"o":"m 269 779 l 269 1 l 44 1 l 44 143 l 128 143 l 128 636 l 44 636 l 44 779 l 269 779 z "},"a":{"ha":764,"x_min":1,"x_max":763,"o":"m 658 290 l 763 0 l 611 0 l 542 194 l 222 194 l 153 0 l 1 0 l 282 778 l 482 778 l 658 290 m 489 336 l 381 636 l 381 636 l 274 336 l 489 336 z "},"b":{"ha":679,"x_min":63,"x_max":643,"o":"m 564 417 q 622 341 600 385 q 643 247 643 297 l 643 221 q 626 134 643 175 q 578 63 608 93 q 506 15 547 32 q 419 -3 465 -3 l 63 -3 l 63 776 l 388 776 q 474 759 433 776 q 546 711 515 742 q 594 640 576 681 q 611 553 611 599 q 565 418 611 476 l 564 417 m 217 469 l 386 469 q 444 493 419 469 q 468 551 468 517 q 444 610 468 586 q 386 633 419 633 l 217 633 l 217 469 m 501 243 q 477 301 501 278 q 419 325 453 325 l 203 325 l 203 136 l 419 136 q 477 160 453 136 q 501 219 501 185 l 501 243 z "},"c":{"ha":642,"x_min":28,"x_max":628,"o":"m 417 124 q 547 164 488 124 l 628 47 q 415 -19 532 -19 q 266 12 336 -19 q 140 101 196 43 q 57 233 86 160 q 28 386 28 306 q 57 541 28 468 q 140 672 86 614 q 266 761 196 731 q 415 792 336 792 q 628 726 531 792 l 547 608 q 417 650 489 650 q 321 629 365 650 q 243 573 276 608 q 190 490 210 538 q 171 388 171 442 q 190 285 171 333 q 243 202 210 238 q 321 146 276 167 q 417 125 365 125 l 417 124 z "},"d":{"ha":679,"x_min":63,"x_max":636,"o":"m 363 778 q 469 756 419 778 q 556 697 519 735 q 615 610 593 660 q 636 503 636 560 l 636 275 q 615 168 636 218 q 556 81 593 118 q 469 22 519 43 q 363 0 419 0 l 64 0 l 63 0 l 63 778 l 363 778 m 493 503 q 483 555 493 531 q 455 597 472 579 q 413 626 438 615 q 363 636 389 636 l 206 636 l 206 142 l 363 142 q 413 152 389 142 q 455 181 438 163 q 483 223 472 199 q 493 275 493 247 l 493 503 z "},"e":{"ha":629,"x_min":63,"x_max":581,"o":"m 204 778 l 581 778 l 581 636 l 204 636 l 204 460 l 581 460 l 581 318 l 204 318 l 204 142 l 581 142 l 581 0 l 204 0 l 204 0 l 63 0 l 63 778 l 204 778 l 204 778 z "},"f":{"ha":610,"x_min":63,"x_max":581,"o":"m 204 778 l 581 778 l 581 636 l 204 636 l 204 460 l 581 460 l 581 318 l 204 318 l 204 0 l 63 0 l 63 778 l 204 778 l 204 778 z "},"g":{"ha":726,"x_min":28,"x_max":683,"o":"m 403 435 l 683 435 l 683 -14 l 542 -14 l 542 3 q 415 -19 478 -19 q 266 12 336 -19 q 140 101 196 43 q 57 233 86 160 q 28 386 28 306 q 57 541 28 468 q 140 672 86 614 q 266 761 196 731 q 415 792 336 792 q 628 726 531 792 l 547 608 q 417 650 489 650 q 321 629 365 650 q 243 573 276 608 q 190 490 210 538 q 171 388 171 442 q 190 285 171 333 q 243 202 210 238 q 321 146 276 167 q 417 125 365 125 q 542 164 483 125 l 542 294 l 404 294 l 403 435 z "},"h":{"ha":714,"x_min":63,"x_max":651,"o":"m 508 778 l 651 778 l 651 0 l 508 0 l 508 318 l 204 318 l 204 0 l 63 0 l 63 778 l 204 778 l 204 460 l 508 460 l 508 778 z "},"i":{"ha":344,"x_min":36,"x_max":307,"o":"m 244 778 l 307 778 l 307 636 l 244 636 l 244 143 l 307 143 l 307 1 l 36 1 l 36 143 l 103 143 l 103 636 l 36 636 l 36 778 l 103 778 l 103 778 l 244 778 l 244 778 z "},"j":{"ha":351,"x_min":25,"x_max":297,"o":"m 38 635 l 38 776 l 297 776 l 297 275 q 276 169 297 218 q 217 83 254 119 q 131 24 181 46 q 25 3 81 3 l 25 144 q 76 155 51 144 q 117 183 100 165 q 145 224 135 200 q 156 275 156 247 l 156 635 l 38 635 z "},"k":{"ha":697,"x_min":64,"x_max":697,"o":"m 660 732 l 386 403 l 649 42 l 681 0 l 503 0 l 292 289 l 206 185 l 206 0 l 64 0 l 64 778 l 206 778 l 206 407 l 514 778 l 697 778 l 660 732 z "},"l":{"ha":547,"x_min":63,"x_max":542,"o":"m 203 142 l 542 142 l 542 0 l 139 0 l 139 0 l 63 0 l 63 778 l 204 778 l 203 142 z "},"m":{"ha":894,"x_min":63,"x_max":832,"o":"m 599 776 l 832 776 l 832 0 l 690 0 l 690 608 l 514 117 l 382 117 l 204 550 l 204 0 l 63 0 l 63 776 l 265 776 l 443 342 l 599 776 z "},"n":{"ha":701,"x_min":63,"x_max":639,"o":"m 497 778 l 639 778 l 639 0 l 461 0 l 204 563 l 204 0 l 63 0 l 63 776 l 264 776 l 496 267 l 497 778 z "},"o":{"ha":847,"x_min":26,"x_max":819,"o":"m 424 785 q 578 753 506 785 q 703 668 650 722 q 788 542 757 614 q 819 388 819 469 q 788 233 819 306 q 703 108 757 161 q 578 23 650 54 q 424 -8 506 -8 q 269 23 342 -8 q 143 108 197 54 q 58 233 89 161 q 26 388 26 306 q 58 542 26 469 q 143 668 89 614 q 269 753 197 722 q 424 785 342 785 m 424 135 q 522 154 476 135 q 603 208 568 174 q 657 289 638 243 q 676 388 676 335 q 657 487 676 440 q 603 567 638 533 q 522 622 568 601 q 424 642 476 642 q 324 622 371 642 q 244 567 278 601 q 190 487 210 533 q 169 388 169 440 q 190 289 169 335 q 244 208 210 243 q 324 154 278 174 q 424 135 371 135 z "},"p":{"ha":631,"x_min":63,"x_max":611,"o":"m 364 778 q 462 758 417 778 q 540 705 507 739 q 592 626 574 671 q 611 529 611 581 q 592 433 611 478 q 539 353 572 388 q 460 300 506 319 q 364 281 415 281 l 204 281 l 204 0 l 63 0 l 63 778 l 364 778 m 364 424 q 438 454 407 424 q 469 529 469 485 q 438 603 469 572 q 364 635 407 635 l 218 635 l 218 424 l 364 424 z "},"q":{"ha":850,"x_min":26,"x_max":819,"o":"m 819 390 q 784 226 819 303 q 686 92 749 149 l 782 -8 l 681 -108 l 560 17 q 493 -1 528 6 q 424 -8 458 -8 q 269 23 342 -8 q 143 108 197 54 q 58 235 89 163 q 26 389 26 307 q 58 543 26 471 q 143 669 89 615 q 269 755 197 724 q 424 786 342 786 q 578 755 506 786 q 703 669 650 724 q 788 543 757 615 q 819 389 819 471 l 819 390 m 169 390 q 190 291 169 338 q 244 210 210 244 q 324 156 278 176 q 424 136 371 136 q 435 136 429 136 q 447 138 440 136 l 361 226 l 464 325 l 586 197 q 653 283 629 233 q 676 390 676 332 q 657 489 676 443 q 603 569 638 535 q 522 624 568 604 q 424 643 476 643 q 324 624 371 643 q 244 569 278 604 q 190 489 210 535 q 169 390 169 443 z "},"r":{"ha":649,"x_min":63,"x_max":626,"o":"m 597 40 l 626 -1 l 453 -1 l 254 281 l 204 281 l 204 -1 l 63 -1 l 63 776 l 364 776 q 460 757 415 776 q 539 704 506 738 q 592 626 572 671 q 611 529 611 581 q 597 447 611 486 q 557 376 582 407 q 498 322 532 344 q 424 289 464 299 l 597 40 m 218 424 l 364 424 q 438 454 407 424 q 469 529 469 485 q 438 603 469 572 q 364 635 407 635 l 218 635 l 218 424 z "},"s":{"ha":629,"x_min":28,"x_max":606,"o":"m 499 399 q 554 354 533 378 q 587 306 575 331 q 602 259 599 282 q 604 215 606 236 q 575 123 601 167 q 501 49 549 79 q 317 -3 422 -3 l 300 -3 q 160 32 224 1 q 57 114 96 63 l 169 199 q 225 158 189 174 q 306 140 261 142 q 425 168 375 136 q 448 188 435 175 q 463 221 461 201 q 310 315 465 286 q 225 336 269 324 q 142 369 181 349 q 83 415 106 390 q 48 464 60 439 q 32 513 36 489 q 29 558 28 538 q 58 651 32 607 q 132 725 85 694 q 333 775 218 782 q 465 745 404 772 q 565 674 526 718 l 458 581 q 402 618 438 604 q 326 635 367 632 q 263 629 293 636 q 208 607 232 622 q 184 586 197 600 q 169 553 171 572 q 208 497 168 519 q 336 457 247 475 q 426 433 386 446 q 497 400 467 419 l 499 399 z "},"t":{"ha":532,"x_min":4,"x_max":526,"o":"m 342 778 l 526 778 l 526 636 l 342 636 l 342 1 l 199 1 l 199 636 l 4 636 l 4 778 l 199 778 l 199 778 l 342 778 l 342 778 z "},"u":{"ha":781,"x_min":47,"x_max":732,"o":"m 590 778 l 732 778 l 732 342 q 705 208 732 271 q 632 100 678 146 q 524 27 586 54 q 390 0 461 0 q 257 27 319 0 q 148 100 194 54 q 74 208 101 146 q 47 342 47 271 l 47 778 l 190 778 l 190 342 q 206 264 190 300 q 249 201 222 228 q 313 158 276 174 q 390 142 349 142 q 468 158 432 142 q 531 201 504 174 q 574 264 558 228 q 590 342 590 300 l 590 778 z "},"v":{"ha":764,"x_min":1,"x_max":763,"o":"m 763 779 l 753 754 l 481 0 l 281 0 l 10 754 l 1 779 l 153 779 l 381 143 l 381 143 l 611 779 l 763 779 z "},"w":{"ha":1167,"x_min":3,"x_max":1167,"o":"m 1167 779 l 1158 754 l 886 0 l 686 0 l 585 281 l 483 0 l 283 0 l 13 754 l 3 779 l 154 779 l 383 143 l 383 143 l 508 490 l 414 756 l 414 756 l 404 781 l 556 781 l 651 514 l 658 493 l 660 492 l 658 490 l 783 143 l 783 143 l 1014 779 l 1167 779 z "},"x":{"ha":781,"x_min":-3,"x_max":779,"o":"m 750 42 l 779 0 l 604 0 l 397 296 l 175 0 l -3 0 l 29 42 l 310 417 l 83 736 l 58 774 l 64 778 l 229 778 l 400 536 l 582 778 l 760 778 l 728 736 l 486 414 l 750 42 z "},"y":{"ha":689,"x_min":-6,"x_max":696,"o":"m 696 779 l 667 738 l 417 385 l 417 385 l 417 0 l 275 0 l 275 376 l 19 738 l -6 775 l 0 779 l 165 779 l 343 526 l 522 779 l 696 779 z "},"z":{"ha":607,"x_min":3,"x_max":599,"o":"m 246 144 l 550 142 l 549 0 l 3 3 l 356 633 l 92 633 l 92 775 l 599 775 l 246 144 z "},"{":{"ha":342,"x_min":38,"x_max":293,"o":"m 253 561 q 245 485 250 525 q 221 410 240 446 q 215 400 218 404 q 208 390 211 396 l 221 369 q 245 294 240 333 q 253 219 250 256 q 254 175 253 197 q 263 142 256 153 q 265 139 264 139 q 274 136 268 138 q 293 135 279 135 l 293 -8 q 231 -1 257 -8 q 187 19 206 7 q 156 47 168 32 q 136 78 143 63 q 116 144 119 110 q 110 213 113 178 q 107 263 108 239 q 97 300 106 286 q 85 311 96 303 q 38 319 75 319 l 38 461 q 85 469 75 461 q 97 481 96 476 q 107 517 106 493 q 110 568 108 542 q 116 637 113 603 q 136 703 119 671 q 186 760 150 732 q 293 788 222 788 l 293 646 q 274 644 279 646 q 265 642 268 642 q 263 638 264 642 q 254 605 256 626 q 253 561 253 583 z "},"}":{"ha":342,"x_min":49,"x_max":304,"o":"m 244 481 q 257 469 247 476 q 304 461 267 461 l 304 319 q 256 311 267 319 q 244 300 246 303 q 235 263 238 286 q 232 213 233 239 q 226 144 231 178 q 207 78 222 110 q 186 47 199 63 q 155 19 174 32 q 110 -1 136 7 q 49 -8 83 -8 l 49 135 q 76 139 72 135 q 81 142 79 139 q 88 175 86 153 q 90 219 89 197 q 97 294 92 256 q 121 369 101 333 q 128 380 124 375 q 135 390 132 385 q 128 400 132 396 q 121 410 124 404 q 97 485 101 446 q 90 561 92 525 q 88 605 89 583 q 81 638 86 626 q 76 642 79 642 q 69 644 75 642 q 49 646 63 646 l 49 788 q 156 760 119 788 q 207 703 192 732 q 226 637 222 671 q 232 568 231 603 q 235 517 233 542 q 244 481 238 493 z "}," ":{"ha":368,"x_min":0,"x_max":0,"o":""},"£":{"ha":682,"x_min":72,"x_max":674,"o":"m 364 231 q 353 153 364 193 l 674 153 l 674 10 l 146 10 l 146 153 l 153 153 l 156 153 l 158 153 l 163 153 q 196 163 181 153 q 199 164 197 163 l 200 164 q 203 167 203 164 q 213 187 208 174 q 219 224 217 200 l 74 224 l 74 365 l 208 365 q 206 382 208 371 l 72 382 l 72 525 l 188 525 q 185 591 185 558 q 192 656 186 624 q 194 660 193 658 q 196 665 194 663 l 196 669 l 196 675 l 196 679 l 196 682 q 197 685 197 685 q 199 689 197 686 l 199 692 q 203 699 201 697 l 203 703 q 206 708 203 706 q 208 715 208 714 q 210 719 210 718 q 213 722 211 719 q 214 726 214 725 q 215 729 214 726 q 219 736 217 731 q 224 742 219 739 q 231 749 226 746 l 231 751 q 233 754 231 751 q 236 758 236 757 q 240 761 238 758 l 242 761 q 244 764 242 764 q 247 768 247 767 q 249 769 249 769 q 251 771 250 769 q 253 773 253 772 q 254 775 253 774 q 258 778 256 775 q 261 781 258 781 q 264 785 264 783 q 266 786 265 786 q 268 788 267 786 q 269 790 269 789 q 271 792 269 790 q 275 794 272 792 q 278 797 275 797 q 281 801 281 800 q 283 803 282 803 q 285 804 283 803 q 288 807 288 807 l 292 807 l 294 807 l 297 807 l 301 807 l 304 807 l 308 807 l 311 807 l 314 807 l 318 807 l 321 807 l 325 807 l 328 807 l 331 807 l 335 807 l 338 807 l 342 807 l 344 807 l 347 807 l 351 807 l 354 807 l 358 807 l 361 807 l 364 807 l 371 807 q 398 806 381 807 q 436 801 415 804 q 481 790 457 797 q 528 771 504 783 q 608 699 581 743 q 635 599 635 656 l 492 599 q 474 637 492 624 q 433 656 456 650 q 392 663 411 663 q 371 664 372 664 l 364 664 l 360 664 l 357 664 l 353 664 q 319 653 333 663 l 317 650 q 314 649 314 650 q 312 647 313 647 q 310 646 311 647 l 310 642 q 301 616 304 633 q 297 567 297 599 q 297 539 297 553 q 300 510 297 525 l 468 510 l 468 368 l 319 368 q 322 351 319 363 l 469 351 l 469 208 l 331 208 l 364 231 z "},"¥":{"ha":636,"x_min":19,"x_max":613,"o":"m 393 346 l 393 311 l 536 311 l 536 251 l 393 251 l 393 151 l 536 151 l 536 92 l 393 92 l 393 1 l 251 1 l 251 92 l 108 92 l 108 151 l 251 151 l 251 251 l 108 251 l 108 311 l 251 311 l 251 357 l 251 357 l 38 744 l 38 744 l 19 779 l 181 779 l 324 521 l 453 779 l 613 779 l 596 747 l 393 346 z "},"­":{"ha":0,"x_min":0,"x_max":0,"o":""},"€":{"ha":583,"x_min":39,"x_max":540,"o":"m 325 510 l 469 510 l 469 368 l 303 368 l 303 358 l 303 351 l 467 351 l 467 208 l 364 208 q 438 147 396 169 q 529 121 481 124 l 539 121 l 539 -21 l 529 -21 l 525 -21 l 522 -21 l 519 -21 l 515 -21 q 391 10 450 -17 q 283 85 332 36 q 281 88 281 88 l 276 92 q 274 94 276 92 l 267 101 q 263 104 264 103 q 260 108 263 106 q 253 114 256 113 q 247 122 250 118 q 242 129 244 125 l 242 132 q 239 136 242 133 q 236 139 236 136 q 232 142 233 142 q 213 173 222 157 q 197 206 204 189 l 39 206 l 39 347 l 158 347 l 158 354 l 158 358 l 158 363 l 158 365 l 42 365 l 42 508 l 174 508 q 209 599 186 556 q 264 679 232 643 l 264 682 l 268 686 q 271 689 268 686 q 275 692 274 692 q 278 696 275 693 q 281 699 281 697 q 285 703 282 700 q 390 776 332 749 q 514 808 449 803 l 519 808 l 524 808 l 531 808 l 540 808 l 540 665 l 533 665 l 531 665 l 526 665 l 524 665 l 519 665 l 517 665 q 403 617 454 658 q 325 514 353 576 l 325 510 z "},"":{"ha":176,"x_min":22,"x_max":153,"o":"m 89 597 l 22 625 l 86 778 l 153 751 l 89 597 z "},"":{"ha":175,"x_min":21,"x_max":151,"o":"m 85 597 l 21 751 l 88 778 l 151 625 l 85 597 z "},"":{"ha":286,"x_min":21,"x_max":267,"o":"m 267 739 l 135 597 l 21 747 l 78 792 l 140 708 l 214 789 l 267 739 z "},"":{"ha":286,"x_min":19,"x_max":267,"o":"m 267 675 l 208 632 l 147 714 l 72 635 l 19 683 l 153 825 l 267 675 z "},"":{"ha":281,"x_min":19,"x_max":265,"o":"m 265 742 l 242 715 q 143 674 200 674 l 136 674 q 81 688 107 675 q 36 725 54 701 l 19 749 l 75 792 l 93 769 q 139 744 110 747 q 186 764 168 742 l 211 789 l 265 742 z "},"":{"ha":397,"x_min":17,"x_max":381,"o":"m 176 736 q 226 748 200 742 q 278 753 251 754 q 330 744 304 753 q 381 710 356 735 l 329 658 q 273 681 304 683 q 196 667 242 679 q 152 655 175 660 q 106 650 129 650 q 59 658 82 650 q 17 686 36 665 l 68 736 q 112 722 86 719 q 178 736 138 725 l 176 736 z "},"":{"ha":297,"x_min":21,"x_max":276,"o":"m 74 665 q 36 681 51 665 q 21 718 21 696 q 36 755 21 740 q 74 769 51 769 q 110 755 96 769 q 125 718 125 740 q 110 681 125 696 q 74 665 96 665 m 225 665 q 188 681 203 665 q 172 718 172 696 q 188 755 172 740 q 225 769 203 769 q 261 755 246 769 q 276 718 276 740 q 261 681 276 696 q 225 665 246 665 z "},"":{"ha":211,"x_min":33,"x_max":186,"o":"m 108 708 q 161 676 136 697 q 186 617 186 654 q 157 550 186 576 q 103 525 133 531 q 54 519 74 519 l 33 519 l 42 592 q 76 592 56 589 q 108 603 97 594 q 111 608 110 606 q 113 617 113 610 q 107 627 113 622 q 93 636 101 632 q 76 642 85 640 q 64 646 68 644 l 35 650 l 35 751 l 106 751 l 106 708 l 108 708 z "},"'":{"ha":167,"x_min":22,"x_max":153,"o":"m 89 597 l 22 625 l 86 778 l 153 751 l 89 597 z "},"\"":{"ha":272,"x_min":22,"x_max":251,"o":"m 89 597 l 22 625 l 86 778 l 153 751 l 89 597 m 188 597 l 121 625 l 185 778 l 251 751 l 188 597 z "},"-":{"ha":269,"x_min":26,"x_max":242,"o":"m 26 176 l 31 247 l 242 251 l 238 181 l 26 176 z "},"/":{"ha":438,"x_min":8,"x_max":413,"o":"m 8 -18 l 276 847 l 413 804 l 144 -60 l 8 -18 z "},":":{"ha":214,"x_min":26,"x_max":179,"o":"m 179 225 l 179 219 q 172 186 179 204 q 169 181 169 183 q 165 174 167 175 q 150 158 158 165 q 140 151 146 154 q 136 150 139 150 q 104 143 119 143 q 83 147 93 143 l 81 147 q 69 150 78 147 q 67 151 69 150 q 57 158 61 154 q 42 174 49 165 q 35 183 38 178 q 33 186 33 185 q 31 197 31 194 l 31 200 q 26 221 26 210 q 33 253 26 236 q 36 260 36 258 q 38 263 38 263 q 40 267 39 264 q 43 270 42 269 q 47 274 44 271 q 53 281 51 278 q 101 297 74 297 q 121 294 114 297 l 125 294 l 128 292 q 138 287 133 289 q 147 281 143 285 l 153 275 q 160 265 157 269 q 167 253 164 260 q 174 232 172 242 l 179 225 m 179 574 l 179 567 q 172 535 179 551 q 169 528 169 529 q 167 524 168 525 q 165 521 167 524 q 150 506 158 513 q 145 502 147 503 q 140 499 143 501 q 136 497 139 497 q 104 492 124 492 q 83 494 90 492 l 81 494 q 69 497 72 497 q 67 499 69 497 q 62 502 64 501 q 57 506 60 503 q 42 521 49 513 q 38 526 39 524 q 35 531 36 528 q 33 535 33 532 q 31 544 31 540 l 31 547 q 26 569 26 557 q 33 601 26 585 q 36 608 36 604 q 38 611 38 610 q 40 614 39 613 q 47 621 43 618 q 50 624 49 624 q 53 628 51 625 q 101 646 75 646 q 121 642 110 646 l 125 642 q 128 640 125 642 q 138 635 133 638 q 147 629 143 632 q 150 626 149 626 q 153 622 151 625 q 160 612 157 617 q 167 601 164 607 q 174 581 172 588 l 179 574 z "},";":{"ha":217,"x_min":25,"x_max":190,"o":"m 179 560 l 179 553 q 172 521 179 538 q 169 514 169 518 q 167 511 168 513 q 165 508 167 510 q 150 492 161 503 q 145 489 147 490 q 140 486 143 488 q 136 485 139 485 q 104 478 119 478 q 83 481 97 478 l 81 481 q 75 483 78 482 q 69 485 72 483 q 67 486 69 485 q 62 489 64 488 q 57 492 60 490 q 42 508 46 503 q 35 518 36 514 q 33 521 33 519 q 31 531 31 529 l 31 535 q 26 556 26 544 q 33 588 26 571 q 36 594 36 593 q 38 598 38 597 q 40 601 39 599 l 47 608 l 53 614 q 101 632 75 632 q 111 631 107 632 q 121 629 115 631 l 125 629 l 128 626 q 147 615 138 622 q 153 608 151 611 q 167 588 163 597 q 171 578 169 582 q 174 567 172 574 l 179 560 m 158 228 q 190 167 190 206 l 190 164 l 190 160 q 188 150 190 156 l 188 147 l 188 143 l 188 140 q 187 138 188 139 q 186 136 186 138 l 119 -33 l 25 8 l 90 101 q 88 103 89 103 q 86 104 88 103 q 81 107 83 106 q 76 110 79 108 q 72 113 74 113 q 69 117 71 114 q 65 120 67 119 q 63 124 64 121 q 60 125 61 125 q 58 126 60 125 q 56 131 58 128 q 53 133 53 131 q 49 136 50 136 q 47 140 47 138 l 47 143 l 47 147 l 47 153 l 47 158 q 79 219 47 199 q 86 225 81 222 l 89 225 q 121 232 101 232 q 153 225 140 232 l 157 225 q 160 223 158 224 q 164 219 161 222 l 158 228 z "},"=":{"ha":319,"x_min":26,"x_max":292,"o":"m 26 176 l 31 247 l 292 251 l 289 181 l 26 176 m 26 414 l 31 486 l 292 489 l 289 418 l 26 414 z "},"+":{"ha":263,"x_min":26,"x_max":242,"o":"m 97 178 l 26 176 l 31 247 l 97 249 l 96 329 l 167 325 l 168 250 l 242 251 l 238 181 l 169 179 l 169 114 l 99 118 l 97 178 z "},"*":{"ha":238,"x_min":14,"x_max":218,"o":"m 64 663 l 14 713 l 67 758 l 114 713 l 169 769 l 218 715 l 164 663 l 215 610 l 163 564 l 114 613 l 69 565 l 21 619 l 64 663 z "},"^":{"ha":285,"x_min":17,"x_max":263,"o":"m 192 567 l 142 676 l 88 567 l 17 567 l 115 767 l 169 767 l 263 567 l 192 567 z "},"~":{"ha":425,"x_min":17,"x_max":381,"o":"m 176 364 q 226 376 200 369 q 278 381 251 382 q 330 371 304 381 q 381 336 356 361 l 329 286 q 273 308 304 311 q 196 293 242 306 q 152 282 175 288 q 106 276 129 276 q 59 285 82 276 q 17 313 36 293 l 68 364 q 112 349 86 346 q 178 363 138 351 l 176 364 z "},"_":{"ha":318,"x_min":26,"x_max":292,"o":"m 26 14 l 31 85 l 292 88 l 289 17 l 26 14 z "},"|":{"ha":192,"x_min":25,"x_max":164,"o":"m 28 -85 l 25 781 l 161 822 l 164 -42 l 28 -85 z "},"`":{"ha":174,"x_min":14,"x_max":143,"o":"m 78 867 l 14 1018 l 81 1043 l 143 893 l 78 867 z "},"´":{"ha":165,"x_min":14,"x_max":144,"o":"m 81 865 l 14 893 l 78 1046 l 144 1019 l 81 865 z "},"ˇ":{"ha":285,"x_min":21,"x_max":267,"o":"m 267 992 l 135 850 l 21 1000 l 78 1044 l 140 961 l 214 1042 l 267 992 z "},"˘":{"ha":1157,"x_min":0,"x_max":0,"o":""},"ˆ":{"ha":281,"x_min":19,"x_max":267,"o":"m 267 893 l 208 850 l 147 932 l 72 853 l 19 901 l 153 1043 l 267 893 z "},"˜":{"ha":406,"x_min":17,"x_max":381,"o":"m 176 961 q 226 973 200 967 q 278 978 251 979 q 330 969 304 978 q 381 935 356 960 l 329 883 q 273 906 304 908 q 196 892 242 904 q 152 880 175 885 q 106 875 129 875 q 59 883 82 875 q 17 911 36 890 l 68 961 q 112 947 86 944 q 178 961 138 950 l 176 961 z "},"¨":{"ha":304,"x_min":21,"x_max":276,"o":"m 74 863 q 36 878 51 863 q 21 915 21 893 q 36 952 21 938 q 74 967 51 967 q 110 952 96 967 q 125 915 125 938 q 110 878 125 893 q 74 863 96 863 m 225 863 q 188 878 203 863 q 172 915 172 893 q 188 952 172 938 q 225 967 203 967 q 261 952 246 967 q 276 915 276 938 q 261 878 276 893 q 225 863 246 863 z "},"Š":{"ha":626,"x_min":26,"x_max":604,"o":"m 140 372 q 81 417 104 393 q 47 465 58 440 q 31 515 35 490 q 28 560 26 539 q 58 652 31 608 q 131 725 85 696 q 224 766 172 753 q 332 776 276 779 q 464 747 403 774 q 564 675 525 719 l 457 581 q 402 618 438 604 q 325 635 367 632 q 261 629 292 636 q 207 607 231 622 q 183 586 196 600 q 169 553 169 572 q 188 510 168 529 q 253 476 208 492 l 253 329 q 194 347 224 336 q 138 372 165 357 l 140 372 m 497 400 q 553 356 532 379 q 585 308 574 332 q 601 260 597 283 q 603 217 604 236 q 574 125 600 168 q 500 51 547 82 q 315 0 421 0 l 299 0 q 158 33 222 3 q 56 115 94 64 l 169 201 q 224 160 188 176 q 304 142 261 144 q 369 147 338 140 q 424 169 400 154 q 447 190 433 176 q 461 224 460 204 q 378 300 464 271 l 378 447 q 444 427 414 439 q 499 400 475 415 l 497 400 m 424 1071 l 292 929 l 178 1079 l 235 1124 l 297 1040 l 371 1121 l 424 1071 z "},"Ś":{"ha":626,"x_min":26,"x_max":604,"o":"m 140 372 q 81 417 104 393 q 47 465 58 440 q 31 515 35 490 q 28 560 26 539 q 58 652 31 608 q 131 725 85 696 q 224 766 172 753 q 332 776 276 779 q 464 747 403 774 q 564 675 525 719 l 457 581 q 402 618 438 604 q 325 635 367 632 q 261 629 292 636 q 207 607 231 622 q 183 586 196 600 q 169 553 169 572 q 188 510 168 529 q 253 476 208 492 l 253 329 q 194 347 224 336 q 138 372 165 357 l 140 372 m 497 400 q 553 356 532 379 q 585 308 574 332 q 601 260 597 283 q 603 217 604 236 q 574 125 600 168 q 500 51 547 82 q 315 0 421 0 l 299 0 q 158 33 222 3 q 56 115 94 64 l 169 201 q 224 160 188 176 q 304 142 261 144 q 369 147 338 140 q 424 169 400 154 q 447 190 433 176 q 461 224 460 204 q 378 300 464 271 l 378 447 q 444 427 414 439 q 499 400 475 415 l 497 400 m 304 925 l 238 953 l 301 1106 l 368 1079 l 304 925 z "},"Ť":{"ha":525,"x_min":1,"x_max":524,"o":"m 196 0 l 196 543 l 338 543 l 338 0 l 196 0 m 524 776 l 524 635 l 1 635 l 1 776 l 196 776 l 196 776 l 338 776 l 338 776 l 524 776 m 381 1071 l 249 929 l 135 1079 l 192 1124 l 254 1040 l 328 1121 l 381 1071 z "},"Ž":{"ha":606,"x_min":3,"x_max":600,"o":"m 246 144 l 550 142 l 549 0 l 3 3 l 299 532 l 463 532 l 246 144 m 169 635 l 85 635 l 85 776 l 600 776 l 519 635 l 168 635 l 169 635 m 464 1114 l 332 972 l 218 1122 l 275 1167 l 338 1083 l 411 1164 l 464 1114 z "},"Ź":{"ha":606,"x_min":3,"x_max":600,"o":"m 246 144 l 550 142 l 549 0 l 3 3 l 299 532 l 463 532 l 246 144 m 169 635 l 85 635 l 85 776 l 600 776 l 519 635 l 168 635 l 169 635 m 344 968 l 278 996 l 342 1149 l 408 1122 l 344 968 z "},"š":{"ha":629,"x_min":28,"x_max":606,"o":"m 499 399 q 554 354 533 378 q 587 306 575 331 q 602 259 599 282 q 604 215 606 236 q 575 123 601 167 q 501 49 549 79 q 317 -3 422 -3 l 300 -3 q 160 32 224 1 q 57 114 96 63 l 169 199 q 225 158 189 174 q 306 140 261 142 q 425 168 375 136 q 448 188 435 175 q 463 221 461 201 q 310 315 465 286 q 225 336 269 324 q 142 369 181 349 q 83 415 106 390 q 48 464 60 439 q 32 513 36 489 q 29 558 28 538 q 58 651 32 607 q 132 725 85 694 q 333 775 218 782 q 465 745 404 772 q 565 674 526 718 l 458 581 q 402 618 438 604 q 326 635 367 632 q 263 629 293 636 q 208 607 232 622 q 184 586 197 600 q 169 553 171 572 q 208 497 168 519 q 336 457 247 475 q 426 433 386 446 q 497 400 467 419 l 499 399 m 442 1033 l 310 892 l 196 1042 l 253 1086 l 315 1003 l 389 1083 l 442 1033 z "},"ś":{"ha":629,"x_min":28,"x_max":606,"o":"m 499 399 q 554 354 533 378 q 587 306 575 331 q 602 259 599 282 q 604 215 606 236 q 575 123 601 167 q 501 49 549 79 q 317 -3 422 -3 l 300 -3 q 160 32 224 1 q 57 114 96 63 l 169 199 q 225 158 189 174 q 306 140 261 142 q 425 168 375 136 q 448 188 435 175 q 463 221 461 201 q 310 315 465 286 q 225 336 269 324 q 142 369 181 349 q 83 415 106 390 q 48 464 60 439 q 32 513 36 489 q 29 558 28 538 q 58 651 32 607 q 132 725 85 694 q 333 775 218 782 q 465 745 404 772 q 565 674 526 718 l 458 581 q 402 618 438 604 q 326 635 367 632 q 263 629 293 636 q 208 607 232 622 q 184 586 197 600 q 169 553 171 572 q 208 497 168 519 q 336 457 247 475 q 426 433 386 446 q 497 400 467 419 l 499 399 m 322 888 l 256 915 l 319 1068 l 386 1042 l 322 888 z "},"ž":{"ha":607,"x_min":3,"x_max":599,"o":"m 246 144 l 550 142 l 549 0 l 3 3 l 356 633 l 92 633 l 92 775 l 599 775 l 246 144 m 442 1033 l 310 892 l 196 1042 l 253 1086 l 315 1003 l 389 1083 l 442 1033 z "},"ź":{"ha":607,"x_min":3,"x_max":599,"o":"m 246 144 l 550 142 l 549 0 l 3 3 l 356 633 l 92 633 l 92 775 l 599 775 l 246 144 m 322 888 l 256 915 l 319 1068 l 386 1042 l 322 888 z "},"Ż":{"ha":606,"x_min":3,"x_max":600,"o":"m 246 144 l 550 142 l 549 0 l 3 3 l 299 532 l 463 532 l 246 144 m 169 635 l 85 635 l 85 776 l 600 776 l 519 635 l 168 635 l 169 635 z "},"ż":{"ha":607,"x_min":3,"x_max":599,"o":"m 246 144 l 550 142 l 549 0 l 3 3 l 356 633 l 92 633 l 92 775 l 599 775 l 246 144 z "},"Ŕ":{"ha":631,"x_min":60,"x_max":607,"o":"m 607 0 l 442 0 l 276 281 l 275 281 l 275 424 l 347 424 l 358 424 q 426 458 399 428 q 453 529 453 489 q 422 603 453 572 q 347 635 392 635 l 203 635 l 203 -1 l 60 -1 l 60 776 l 347 776 q 444 757 399 776 q 523 704 489 738 q 576 626 557 671 q 596 529 596 581 q 550 385 596 449 q 433 297 504 322 l 607 0 m 301 925 l 235 953 l 299 1106 l 365 1079 l 301 925 z "},"Á":{"ha":764,"x_min":3,"x_max":764,"o":"m 764 0 l 613 0 l 525 242 l 383 636 l 383 636 l 153 0 l 3 0 l 11 25 l 283 779 l 483 779 l 658 290 l 754 25 l 764 0 m 379 890 l 313 918 l 376 1071 l 443 1044 l 379 890 z "},"Â":{"ha":764,"x_min":3,"x_max":764,"o":"m 764 0 l 613 0 l 525 242 l 383 636 l 383 636 l 153 0 l 3 0 l 11 25 l 283 779 l 483 779 l 658 290 l 754 25 l 764 0 m 489 939 l 431 896 l 369 978 l 294 899 l 242 947 l 375 1089 l 489 939 z "},"Ă":{"ha":764,"x_min":3,"x_max":764,"o":"m 764 0 l 613 0 l 525 242 l 383 636 l 383 636 l 153 0 l 3 0 l 11 25 l 283 779 l 483 779 l 658 290 l 754 25 l 764 0 z "},"Ä":{"ha":764,"x_min":3,"x_max":764,"o":"m 764 0 l 613 0 l 525 242 l 383 636 l 383 636 l 153 0 l 3 0 l 11 25 l 283 779 l 483 779 l 658 290 l 754 25 l 764 0 m 292 864 q 254 879 269 864 q 239 917 239 894 q 254 953 239 939 q 292 968 269 968 q 328 953 314 968 q 343 917 343 939 q 328 879 343 894 q 292 864 314 864 m 443 864 q 406 879 421 864 q 390 917 390 894 q 406 953 390 939 q 443 968 421 968 q 479 953 464 968 q 494 917 494 939 q 479 879 494 894 q 443 864 464 864 z "},"Ĺ":{"ha":547,"x_min":61,"x_max":542,"o":"m 61 0 l 61 778 l 203 778 l 203 0 l 61 0 m 322 0 l 322 142 l 542 142 l 542 0 l 322 0 m 143 958 l 76 986 l 140 1139 l 207 1113 l 143 958 z "},"Ć":{"ha":631,"x_min":19,"x_max":615,"o":"m 404 125 q 536 165 476 125 l 615 47 q 403 -18 521 -18 q 253 13 324 -18 q 128 103 183 44 q 58 202 85 147 q 21 319 32 257 l 167 319 q 199 242 176 278 q 253 181 222 207 q 323 140 285 154 q 403 125 361 125 l 404 125 m 404 649 q 320 633 360 649 q 249 589 281 617 q 194 524 217 561 q 164 442 172 486 l 19 442 q 128 672 36 575 q 253 761 183 731 q 403 792 324 792 q 615 726 521 792 l 536 608 q 404 650 478 650 l 404 649 m 354 918 l 288 946 l 351 1099 l 418 1072 l 354 918 z "},"Ç":{"ha":631,"x_min":19,"x_max":615,"o":"m 404 125 q 536 165 476 125 l 615 47 q 403 -18 521 -18 q 253 13 324 -18 q 128 103 183 44 q 58 202 85 147 q 21 319 32 257 l 167 319 q 199 242 176 278 q 253 181 222 207 q 323 140 285 154 q 403 125 361 125 l 404 125 m 404 649 q 320 633 360 649 q 249 589 281 617 q 194 524 217 561 q 164 442 172 486 l 19 442 q 128 672 36 575 q 253 761 183 731 q 403 792 324 792 q 615 726 521 792 l 536 608 q 404 650 478 650 l 404 649 z "},"Č":{"ha":631,"x_min":19,"x_max":615,"o":"m 404 125 q 536 165 476 125 l 615 47 q 403 -18 521 -18 q 253 13 324 -18 q 128 103 183 44 q 58 202 85 147 q 21 319 32 257 l 167 319 q 199 242 176 278 q 253 181 222 207 q 323 140 285 154 q 403 125 361 125 l 404 125 m 404 649 q 320 633 360 649 q 249 589 281 617 q 194 524 217 561 q 164 442 172 486 l 19 442 q 128 672 36 575 q 253 761 183 731 q 403 792 324 792 q 615 726 521 792 l 536 608 q 404 650 478 650 l 404 649 m 474 1064 l 342 922 l 228 1072 l 285 1117 l 347 1033 l 421 1114 l 474 1064 z "},"É":{"ha":606,"x_min":47,"x_max":564,"o":"m 189 635 l 189 458 l 564 458 l 564 317 l 189 317 l 189 317 l 47 317 l 47 776 l 189 776 l 189 776 l 564 776 l 564 635 l 189 635 m 564 142 l 564 0 l 189 0 l 189 0 l 47 0 l 47 142 l 564 142 m 301 872 l 235 900 l 299 1053 l 365 1026 l 301 872 z "},"Ę":{"ha":606,"x_min":47,"x_max":564,"o":"m 189 635 l 189 458 l 564 458 l 564 317 l 189 317 l 189 317 l 47 317 l 47 776 l 189 776 l 189 776 l 564 776 l 564 635 l 189 635 m 564 142 l 564 0 l 189 0 l 189 0 l 47 0 l 47 142 l 564 142 z "},"Ë":{"ha":606,"x_min":47,"x_max":564,"o":"m 189 635 l 189 458 l 564 458 l 564 317 l 189 317 l 189 317 l 47 317 l 47 776 l 189 776 l 189 776 l 564 776 l 564 635 l 189 635 m 564 142 l 564 0 l 189 0 l 189 0 l 47 0 l 47 142 l 564 142 m 214 846 q 176 861 192 846 q 161 899 161 876 q 176 935 161 921 q 214 950 192 950 q 251 935 236 950 q 265 899 265 921 q 251 861 265 876 q 214 846 236 846 m 365 846 q 328 861 343 846 q 313 899 313 876 q 328 935 313 921 q 365 950 343 950 q 401 935 386 950 q 417 899 417 921 q 401 861 417 876 q 365 846 386 846 z "},"Ě":{"ha":606,"x_min":47,"x_max":564,"o":"m 189 635 l 189 458 l 564 458 l 564 317 l 189 317 l 189 317 l 47 317 l 47 776 l 189 776 l 189 776 l 564 776 l 564 635 l 189 635 m 564 142 l 564 0 l 189 0 l 189 0 l 47 0 l 47 142 l 564 142 m 421 1018 l 289 876 l 175 1026 l 232 1071 l 294 988 l 368 1068 l 421 1018 z "},"Í":{"ha":336,"x_min":32,"x_max":303,"o":"m 303 776 l 303 635 l 32 635 l 32 776 l 97 776 l 97 776 l 240 776 l 240 776 l 303 776 m 240 142 l 303 142 l 303 -1 l 32 -1 l 32 142 l 97 142 l 97 542 l 240 542 l 240 142 m 172 882 l 106 910 l 169 1063 l 236 1036 l 172 882 z "},"Î":{"ha":336,"x_min":32,"x_max":303,"o":"m 303 776 l 303 635 l 32 635 l 32 776 l 97 776 l 97 776 l 240 776 l 240 776 l 303 776 m 240 142 l 303 142 l 303 -1 l 32 -1 l 32 142 l 97 142 l 97 542 l 240 542 l 240 142 m 282 931 l 224 888 l 163 969 l 88 890 l 35 939 l 168 1081 l 282 931 z "},"Ď":{"ha":671,"x_min":56,"x_max":628,"o":"m 354 778 q 461 756 411 778 q 548 697 511 735 q 606 610 585 660 q 628 503 628 560 l 628 275 q 606 168 628 218 q 548 81 585 118 q 461 22 511 43 q 354 0 411 0 l 56 0 l 56 142 l 354 142 q 405 152 381 142 q 447 181 429 163 q 476 223 465 199 q 486 275 486 247 l 486 503 q 476 555 486 531 q 447 597 465 579 q 405 626 429 615 q 354 636 381 636 l 197 636 l 197 282 l 56 282 l 56 778 l 356 778 l 354 778 m 435 1014 l 303 872 l 189 1022 l 246 1067 l 308 983 l 382 1064 l 435 1014 z "},"Đ":{"ha":671,"x_min":56,"x_max":628,"o":"m 354 778 q 461 756 411 778 q 548 697 511 735 q 606 610 585 660 q 628 503 628 560 l 628 275 q 606 168 628 218 q 548 81 585 118 q 461 22 511 43 q 354 0 411 0 l 56 0 l 56 142 l 354 142 q 405 152 381 142 q 447 181 429 163 q 476 223 465 199 q 486 275 486 247 l 486 503 q 476 555 486 531 q 447 597 465 579 q 405 626 429 615 q 354 636 381 636 l 197 636 l 197 282 l 56 282 l 56 778 l 356 778 l 354 778 z "},"Ń":{"ha":692,"x_min":61,"x_max":636,"o":"m 636 778 l 636 183 l 494 501 l 494 778 l 636 778 m 263 776 l 624 0 l 460 0 l 203 563 l 203 0 l 61 0 l 61 776 l 263 776 m 344 972 l 278 1000 l 342 1153 l 408 1126 l 344 972 z "},"Ň":{"ha":692,"x_min":61,"x_max":636,"o":"m 636 778 l 636 183 l 494 501 l 494 778 l 636 778 m 263 776 l 624 0 l 460 0 l 203 563 l 203 0 l 61 0 l 61 776 l 263 776 m 464 1118 l 332 976 l 218 1126 l 275 1171 l 338 1088 l 411 1168 l 464 1118 z "},"Ó":{"ha":825,"x_min":21,"x_max":808,"o":"m 417 642 q 325 625 368 642 q 248 578 282 608 q 192 508 214 549 q 164 421 169 468 l 21 421 q 60 563 26 497 q 147 678 93 629 q 268 755 200 726 q 414 783 336 783 q 560 755 492 783 q 683 678 629 726 q 769 563 736 629 q 808 421 801 497 l 664 421 q 635 508 657 468 q 581 578 614 549 q 504 625 547 608 q 413 642 461 642 l 417 642 m 417 135 q 562 181 499 135 q 653 297 625 226 l 803 297 q 751 176 788 232 q 664 80 715 121 q 549 16 613 39 q 417 -7 486 -7 q 284 16 347 -7 q 169 80 221 39 q 82 176 118 121 q 31 297 46 232 l 181 297 q 272 181 208 226 q 417 135 335 135 m 394 961 l 328 989 l 392 1142 l 458 1115 l 394 961 z "},"Ô":{"ha":825,"x_min":21,"x_max":808,"o":"m 417 642 q 325 625 368 642 q 248 578 282 608 q 192 508 214 549 q 164 421 169 468 l 21 421 q 60 563 26 497 q 147 678 93 629 q 268 755 200 726 q 414 783 336 783 q 560 755 492 783 q 683 678 629 726 q 769 563 736 629 q 808 421 801 497 l 664 421 q 635 508 657 468 q 581 578 614 549 q 504 625 547 608 q 413 642 461 642 l 417 642 m 417 135 q 562 181 499 135 q 653 297 625 226 l 803 297 q 751 176 788 232 q 664 80 715 121 q 549 16 613 39 q 417 -7 486 -7 q 284 16 347 -7 q 169 80 221 39 q 82 176 118 121 q 31 297 46 232 l 181 297 q 272 181 208 226 q 417 135 335 135 m 504 1010 l 446 967 l 385 1049 l 310 969 l 257 1018 l 390 1160 l 504 1010 z "},"Ő":{"ha":825,"x_min":21,"x_max":808,"o":"m 417 642 q 325 625 368 642 q 248 578 282 608 q 192 508 214 549 q 164 421 169 468 l 21 421 q 60 563 26 497 q 147 678 93 629 q 268 755 200 726 q 414 783 336 783 q 560 755 492 783 q 683 678 629 726 q 769 563 736 629 q 808 421 801 497 l 664 421 q 635 508 657 468 q 581 578 614 549 q 504 625 547 608 q 413 642 461 642 l 417 642 m 417 135 q 562 181 499 135 q 653 297 625 226 l 803 297 q 751 176 788 232 q 664 80 715 121 q 549 16 613 39 q 417 -7 486 -7 q 284 16 347 -7 q 169 80 221 39 q 82 176 118 121 q 31 297 46 232 l 181 297 q 272 181 208 226 q 417 135 335 135 z "},"Ö":{"ha":825,"x_min":21,"x_max":808,"o":"m 417 642 q 325 625 368 642 q 248 578 282 608 q 192 508 214 549 q 164 421 169 468 l 21 421 q 60 563 26 497 q 147 678 93 629 q 268 755 200 726 q 414 783 336 783 q 560 755 492 783 q 683 678 629 726 q 769 563 736 629 q 808 421 801 497 l 664 421 q 635 508 657 468 q 581 578 614 549 q 504 625 547 608 q 413 642 461 642 l 417 642 m 417 135 q 562 181 499 135 q 653 297 625 226 l 803 297 q 751 176 788 232 q 664 80 715 121 q 549 16 613 39 q 417 -7 486 -7 q 284 16 347 -7 q 169 80 221 39 q 82 176 118 121 q 31 297 46 232 l 181 297 q 272 181 208 226 q 417 135 335 135 m 307 935 q 269 950 285 935 q 254 988 254 965 q 269 1024 254 1010 q 307 1039 285 1039 q 344 1024 329 1039 q 358 988 358 1010 q 344 950 358 965 q 307 935 329 935 m 458 935 q 421 950 436 935 q 406 988 406 965 q 421 1024 406 1010 q 458 1039 436 1039 q 494 1024 479 1039 q 510 988 510 1010 q 494 950 510 965 q 458 935 479 935 z "},"×":{"ha":1157,"x_min":0,"x_max":0,"o":""},"Ř":{"ha":631,"x_min":60,"x_max":607,"o":"m 607 0 l 442 0 l 276 281 l 275 281 l 275 424 l 347 424 l 358 424 q 426 458 399 428 q 453 529 453 489 q 422 603 453 572 q 347 635 392 635 l 203 635 l 203 -1 l 60 -1 l 60 776 l 347 776 q 444 757 399 776 q 523 704 489 738 q 576 626 557 671 q 596 529 596 581 q 550 385 596 449 q 433 297 504 322 l 607 0 m 421 1071 l 289 929 l 175 1079 l 232 1124 l 294 1040 l 368 1121 l 421 1071 z "},"Ů":{"ha":779,"x_min":47,"x_max":731,"o":"m 189 342 q 224 229 189 279 q 313 157 258 179 l 313 8 q 207 52 256 21 q 123 128 158 83 q 67 226 88 172 q 47 342 47 281 l 47 778 l 189 778 l 189 342 m 731 776 l 731 342 q 708 219 731 276 q 647 117 686 163 q 555 42 608 72 q 440 3 501 13 l 440 149 q 547 218 504 165 q 589 342 589 271 l 589 776 l 731 776 z "},"Ú":{"ha":779,"x_min":47,"x_max":731,"o":"m 189 342 q 224 229 189 279 q 313 157 258 179 l 313 8 q 207 52 256 21 q 123 128 158 83 q 67 226 88 172 q 47 342 47 281 l 47 778 l 189 778 l 189 342 m 731 776 l 731 342 q 708 219 731 276 q 647 117 686 163 q 555 42 608 72 q 440 3 501 13 l 440 149 q 547 218 504 165 q 589 342 589 271 l 589 776 l 731 776 m 379 911 l 313 939 l 376 1092 l 443 1065 l 379 911 z "},"Ű":{"ha":779,"x_min":47,"x_max":731,"o":"m 189 342 q 224 229 189 279 q 313 157 258 179 l 313 8 q 207 52 256 21 q 123 128 158 83 q 67 226 88 172 q 47 342 47 281 l 47 778 l 189 778 l 189 342 m 731 776 l 731 342 q 708 219 731 276 q 647 117 686 163 q 555 42 608 72 q 440 3 501 13 l 440 149 q 547 218 504 165 q 589 342 589 271 l 589 776 l 731 776 z "},"Ü":{"ha":779,"x_min":47,"x_max":731,"o":"m 189 342 q 224 229 189 279 q 313 157 258 179 l 313 8 q 207 52 256 21 q 123 128 158 83 q 67 226 88 172 q 47 342 47 281 l 47 778 l 189 778 l 189 342 m 731 776 l 731 342 q 708 219 731 276 q 647 117 686 163 q 555 42 608 72 q 440 3 501 13 l 440 149 q 547 218 504 165 q 589 342 589 271 l 589 776 l 731 776 m 292 885 q 254 900 269 885 q 239 938 239 915 q 254 974 239 960 q 292 989 269 989 q 328 974 314 989 q 343 938 343 960 q 328 900 343 915 q 292 885 314 885 m 443 885 q 406 900 421 885 q 390 938 390 915 q 406 974 390 960 q 443 989 421 989 q 479 974 464 989 q 494 938 494 960 q 479 900 494 915 q 443 885 464 885 z "},"Ý":{"ha":693,"x_min":-8,"x_max":703,"o":"m 240 674 l 419 386 l 418 385 l 418 0 l 275 0 l 275 376 l -8 778 l 79 779 l 165 779 l 240 674 m 703 779 l 499 497 l 414 625 l 414 625 l 522 779 l 703 779 m 322 933 l 256 961 l 319 1114 l 386 1088 l 322 933 z "},"Ţ":{"ha":1157,"x_min":0,"x_max":0,"o":""},"ŕ":{"ha":649,"x_min":63,"x_max":626,"o":"m 597 40 l 626 -1 l 453 -1 l 254 281 l 204 281 l 204 -1 l 63 -1 l 63 776 l 364 776 q 460 757 415 776 q 539 704 506 738 q 592 626 572 671 q 611 529 611 581 q 597 447 611 486 q 557 376 582 407 q 498 322 532 344 q 424 289 464 299 l 597 40 m 218 424 l 364 424 q 438 454 407 424 q 469 529 469 485 q 438 603 469 572 q 364 635 407 635 l 218 635 l 218 424 m 326 899 l 260 926 l 324 1079 l 390 1053 l 326 899 z "},"á":{"ha":764,"x_min":1,"x_max":763,"o":"m 658 290 l 763 0 l 611 0 l 542 194 l 222 194 l 153 0 l 1 0 l 282 778 l 482 778 l 658 290 m 489 336 l 381 636 l 381 636 l 274 336 l 489 336 m 383 894 l 317 922 l 381 1075 l 447 1049 l 383 894 z "},"â":{"ha":764,"x_min":1,"x_max":763,"o":"m 658 290 l 763 0 l 611 0 l 542 194 l 222 194 l 153 0 l 1 0 l 282 778 l 482 778 l 658 290 m 489 336 l 381 636 l 381 636 l 274 336 l 489 336 m 493 943 l 435 900 l 374 982 l 299 903 l 246 951 l 379 1093 l 493 943 z "},"ă":{"ha":764,"x_min":1,"x_max":763,"o":"m 658 290 l 763 0 l 611 0 l 542 194 l 222 194 l 153 0 l 1 0 l 282 778 l 482 778 l 658 290 m 489 336 l 381 636 l 381 636 l 274 336 l 489 336 z "},"ä":{"ha":764,"x_min":1,"x_max":763,"o":"m 658 290 l 763 0 l 611 0 l 542 194 l 222 194 l 153 0 l 1 0 l 282 778 l 482 778 l 658 290 m 489 336 l 381 636 l 381 636 l 274 336 l 489 336 m 296 868 q 258 883 274 868 q 243 921 243 899 q 258 958 243 943 q 296 972 274 972 q 333 958 318 972 q 347 921 347 943 q 333 883 347 899 q 296 868 318 868 m 447 868 q 410 883 425 868 q 394 921 394 899 q 410 958 394 943 q 447 972 425 972 q 483 958 468 972 q 499 921 499 943 q 483 883 499 899 q 447 868 468 868 z "},"ĺ":{"ha":547,"x_min":63,"x_max":542,"o":"m 203 142 l 542 142 l 542 0 l 139 0 l 139 0 l 63 0 l 63 778 l 204 778 l 203 142 m 153 910 l 86 938 l 150 1090 l 217 1064 l 153 910 z "},"ć":{"ha":642,"x_min":28,"x_max":628,"o":"m 417 124 q 547 164 488 124 l 628 47 q 415 -19 532 -19 q 266 12 336 -19 q 140 101 196 43 q 57 233 86 160 q 28 386 28 306 q 57 541 28 468 q 140 672 86 614 q 266 761 196 731 q 415 792 336 792 q 628 726 531 792 l 547 608 q 417 650 489 650 q 321 629 365 650 q 243 573 276 608 q 190 490 210 538 q 171 388 171 442 q 190 285 171 333 q 243 202 210 238 q 321 146 276 167 q 417 125 365 125 l 417 124 m 353 907 l 286 935 l 350 1088 l 417 1061 l 353 907 z "},"ç":{"ha":642,"x_min":28,"x_max":628,"o":"m 417 124 q 547 164 488 124 l 628 47 q 415 -19 532 -19 q 266 12 336 -19 q 140 101 196 43 q 57 233 86 160 q 28 386 28 306 q 57 541 28 468 q 140 672 86 614 q 266 761 196 731 q 415 792 336 792 q 628 726 531 792 l 547 608 q 417 650 489 650 q 321 629 365 650 q 243 573 276 608 q 190 490 210 538 q 171 388 171 442 q 190 285 171 333 q 243 202 210 238 q 321 146 276 167 q 417 125 365 125 l 417 124 z "},"č":{"ha":642,"x_min":28,"x_max":628,"o":"m 417 124 q 547 164 488 124 l 628 47 q 415 -19 532 -19 q 266 12 336 -19 q 140 101 196 43 q 57 233 86 160 q 28 386 28 306 q 57 541 28 468 q 140 672 86 614 q 266 761 196 731 q 415 792 336 792 q 628 726 531 792 l 547 608 q 417 650 489 650 q 321 629 365 650 q 243 573 276 608 q 190 490 210 538 q 171 388 171 442 q 190 285 171 333 q 243 202 210 238 q 321 146 276 167 q 417 125 365 125 l 417 124 m 472 1053 l 340 911 l 226 1061 l 283 1106 l 346 1022 l 419 1103 l 472 1053 z "},"é":{"ha":629,"x_min":63,"x_max":581,"o":"m 204 778 l 581 778 l 581 636 l 204 636 l 204 460 l 581 460 l 581 318 l 204 318 l 204 142 l 581 142 l 581 0 l 204 0 l 204 0 l 63 0 l 63 778 l 204 778 l 204 778 m 315 914 l 249 942 l 313 1094 l 379 1068 l 315 914 z "},"ę":{"ha":629,"x_min":63,"x_max":581,"o":"m 204 778 l 581 778 l 581 636 l 204 636 l 204 460 l 581 460 l 581 318 l 204 318 l 204 142 l 581 142 l 581 0 l 204 0 l 204 0 l 63 0 l 63 778 l 204 778 l 204 778 z "},"ë":{"ha":629,"x_min":63,"x_max":581,"o":"m 204 778 l 581 778 l 581 636 l 204 636 l 204 460 l 581 460 l 581 318 l 204 318 l 204 142 l 581 142 l 581 0 l 204 0 l 204 0 l 63 0 l 63 778 l 204 778 l 204 778 m 228 888 q 190 903 206 888 q 175 940 175 918 q 190 977 175 963 q 228 992 206 992 q 265 977 250 992 q 279 940 279 963 q 265 903 279 918 q 228 888 250 888 m 379 888 q 342 903 357 888 q 326 940 326 918 q 342 977 326 963 q 379 992 357 992 q 415 977 400 992 q 431 940 431 963 q 415 903 431 918 q 379 888 400 888 z "},"ě":{"ha":629,"x_min":63,"x_max":581,"o":"m 204 778 l 581 778 l 581 636 l 204 636 l 204 460 l 581 460 l 581 318 l 204 318 l 204 142 l 581 142 l 581 0 l 204 0 l 204 0 l 63 0 l 63 778 l 204 778 l 204 778 m 435 1060 l 303 918 l 189 1068 l 246 1113 l 308 1029 l 382 1110 l 435 1060 z "},"í":{"ha":344,"x_min":36,"x_max":307,"o":"m 244 778 l 307 778 l 307 636 l 244 636 l 244 143 l 307 143 l 307 1 l 36 1 l 36 143 l 103 143 l 103 636 l 36 636 l 36 778 l 103 778 l 103 778 l 244 778 l 244 778 m 168 918 l 101 946 l 165 1099 l 232 1072 l 168 918 z "},"î":{"ha":344,"x_min":31,"x_max":307,"o":"m 244 778 l 307 778 l 307 636 l 244 636 l 244 143 l 307 143 l 307 1 l 36 1 l 36 143 l 103 143 l 103 636 l 36 636 l 36 778 l 103 778 l 103 778 l 244 778 l 244 778 m 278 967 l 219 924 l 158 1006 l 83 926 l 31 975 l 164 1117 l 278 967 z "},"ď":{"ha":679,"x_min":63,"x_max":636,"o":"m 363 778 q 469 756 419 778 q 556 697 519 735 q 615 610 593 660 q 636 503 636 560 l 636 275 q 615 168 636 218 q 556 81 593 118 q 469 22 519 43 q 363 0 419 0 l 64 0 l 63 0 l 63 778 l 363 778 m 493 503 q 483 555 493 531 q 455 597 472 579 q 413 626 438 615 q 363 636 389 636 l 206 636 l 206 142 l 363 142 q 413 152 389 142 q 455 181 438 163 q 483 223 472 199 q 493 275 493 247 l 493 503 z "},"đ":{"ha":679,"x_min":63,"x_max":636,"o":"m 363 778 q 469 756 419 778 q 556 697 519 735 q 615 610 593 660 q 636 503 636 560 l 636 275 q 615 168 636 218 q 556 81 593 118 q 469 22 519 43 q 363 0 419 0 l 64 0 l 63 0 l 63 778 l 363 778 m 493 503 q 483 555 493 531 q 455 597 472 579 q 413 626 438 615 q 363 636 389 636 l 206 636 l 206 142 l 363 142 q 413 152 389 142 q 455 181 438 163 q 483 223 472 199 q 493 275 493 247 l 493 503 m 232 176 l 236 247 l 447 251 l 443 181 l 232 176 z "},"ń":{"ha":701,"x_min":63,"x_max":639,"o":"m 497 778 l 639 778 l 639 0 l 461 0 l 204 563 l 204 0 l 63 0 l 63 776 l 264 776 l 496 267 l 497 778 m 357 892 l 290 919 l 354 1072 l 421 1046 l 357 892 z "},"ň":{"ha":701,"x_min":63,"x_max":639,"o":"m 497 778 l 639 778 l 639 0 l 461 0 l 204 563 l 204 0 l 63 0 l 63 776 l 264 776 l 496 267 l 497 778 m 476 1038 l 344 896 l 231 1046 l 288 1090 l 350 1007 l 424 1088 l 476 1038 z "},"ó":{"ha":847,"x_min":26,"x_max":819,"o":"m 424 785 q 578 753 506 785 q 703 668 650 722 q 788 542 757 614 q 819 388 819 469 q 788 233 819 306 q 703 108 757 161 q 578 23 650 54 q 424 -8 506 -8 q 269 23 342 -8 q 143 108 197 54 q 58 233 89 161 q 26 388 26 306 q 58 542 26 469 q 143 668 89 614 q 269 753 197 722 q 424 785 342 785 m 424 135 q 522 154 476 135 q 603 208 568 174 q 657 289 638 243 q 676 388 676 335 q 657 487 676 440 q 603 567 638 533 q 522 622 568 601 q 424 642 476 642 q 324 622 371 642 q 244 567 278 601 q 190 487 210 533 q 169 388 169 440 q 190 289 169 335 q 244 208 210 243 q 324 154 278 174 q 424 135 371 135 m 421 921 l 354 949 l 418 1101 l 485 1075 l 421 921 z "},"ô":{"ha":847,"x_min":26,"x_max":819,"o":"m 424 785 q 578 753 506 785 q 703 668 650 722 q 788 542 757 614 q 819 388 819 469 q 788 233 819 306 q 703 108 757 161 q 578 23 650 54 q 424 -8 506 -8 q 269 23 342 -8 q 143 108 197 54 q 58 233 89 161 q 26 388 26 306 q 58 542 26 469 q 143 668 89 614 q 269 753 197 722 q 424 785 342 785 m 424 135 q 522 154 476 135 q 603 208 568 174 q 657 289 638 243 q 676 388 676 335 q 657 487 676 440 q 603 567 638 533 q 522 622 568 601 q 424 642 476 642 q 324 622 371 642 q 244 567 278 601 q 190 487 210 533 q 169 388 169 440 q 190 289 169 335 q 244 208 210 243 q 324 154 278 174 q 424 135 371 135 m 531 969 l 472 926 l 411 1008 l 336 929 l 283 978 l 417 1119 l 531 969 z "},"ő":{"ha":847,"x_min":26,"x_max":819,"o":"m 424 785 q 578 753 506 785 q 703 668 650 722 q 788 542 757 614 q 819 388 819 469 q 788 233 819 306 q 703 108 757 161 q 578 23 650 54 q 424 -8 506 -8 q 269 23 342 -8 q 143 108 197 54 q 58 233 89 161 q 26 388 26 306 q 58 542 26 469 q 143 668 89 614 q 269 753 197 722 q 424 785 342 785 m 424 135 q 522 154 476 135 q 603 208 568 174 q 657 289 638 243 q 676 388 676 335 q 657 487 676 440 q 603 567 638 533 q 522 622 568 601 q 424 642 476 642 q 324 622 371 642 q 244 567 278 601 q 190 487 210 533 q 169 388 169 440 q 190 289 169 335 q 244 208 210 243 q 324 154 278 174 q 424 135 371 135 z "},"ö":{"ha":847,"x_min":26,"x_max":819,"o":"m 424 785 q 578 753 506 785 q 703 668 650 722 q 788 542 757 614 q 819 388 819 469 q 788 233 819 306 q 703 108 757 161 q 578 23 650 54 q 424 -8 506 -8 q 269 23 342 -8 q 143 108 197 54 q 58 233 89 161 q 26 388 26 306 q 58 542 26 469 q 143 668 89 614 q 269 753 197 722 q 424 785 342 785 m 424 135 q 522 154 476 135 q 603 208 568 174 q 657 289 638 243 q 676 388 676 335 q 657 487 676 440 q 603 567 638 533 q 522 622 568 601 q 424 642 476 642 q 324 622 371 642 q 244 567 278 601 q 190 487 210 533 q 169 388 169 440 q 190 289 169 335 q 244 208 210 243 q 324 154 278 174 q 424 135 371 135 m 333 894 q 296 910 311 894 q 281 947 281 925 q 296 984 281 969 q 333 999 311 999 q 370 984 356 999 q 385 947 385 969 q 370 910 385 925 q 333 894 356 894 m 485 894 q 447 910 463 894 q 432 947 432 925 q 447 984 432 969 q 485 999 463 999 q 521 984 506 999 q 536 947 536 969 q 521 910 536 925 q 485 894 506 894 z "},"÷":{"ha":214,"x_min":26,"x_max":179,"o":"m 179 225 l 179 219 q 172 186 179 204 q 169 181 169 183 q 165 174 167 175 q 150 158 158 165 q 140 151 146 154 q 136 150 139 150 q 104 143 119 143 q 83 147 93 143 l 81 147 q 69 150 78 147 q 67 151 69 150 q 57 158 61 154 q 42 174 49 165 q 35 183 38 178 q 33 186 33 185 q 31 197 31 194 l 31 200 q 26 221 26 210 q 33 253 26 236 q 36 260 36 258 q 38 263 38 263 q 40 267 39 264 q 43 270 42 269 q 47 274 44 271 q 53 281 51 278 q 101 297 74 297 q 121 294 114 297 l 125 294 l 128 292 q 138 287 133 289 q 147 281 143 285 l 153 275 q 160 265 157 269 q 167 253 164 260 q 174 232 172 242 l 179 225 m 179 574 l 179 567 q 172 535 179 551 q 169 528 169 529 q 167 524 168 525 q 165 521 167 524 q 150 506 158 513 q 145 502 147 503 q 140 499 143 501 q 136 497 139 497 q 104 492 124 492 q 83 494 90 492 l 81 494 q 69 497 72 497 q 67 499 69 497 q 62 502 64 501 q 57 506 60 503 q 42 521 49 513 q 38 526 39 524 q 35 531 36 528 q 33 535 33 532 q 31 544 31 540 l 31 547 q 26 569 26 557 q 33 601 26 585 q 36 608 36 604 q 38 611 38 610 q 40 614 39 613 q 47 621 43 618 q 50 624 49 624 q 53 628 51 625 q 101 646 75 646 q 121 642 110 646 l 125 642 q 128 640 125 642 q 138 635 133 638 q 147 629 143 632 q 150 626 149 626 q 153 622 151 625 q 160 612 157 617 q 167 601 164 607 q 174 581 172 588 l 179 574 z "},"ř":{"ha":649,"x_min":63,"x_max":626,"o":"m 597 40 l 626 -1 l 453 -1 l 254 281 l 204 281 l 204 -1 l 63 -1 l 63 776 l 364 776 q 460 757 415 776 q 539 704 506 738 q 592 626 572 671 q 611 529 611 581 q 597 447 611 486 q 557 376 582 407 q 498 322 532 344 q 424 289 464 299 l 597 40 m 218 424 l 364 424 q 438 454 407 424 q 469 529 469 485 q 438 603 469 572 q 364 635 407 635 l 218 635 l 218 424 m 446 1044 l 314 903 l 200 1053 l 257 1097 l 319 1014 l 393 1094 l 446 1044 z "},"ů":{"ha":781,"x_min":47,"x_max":732,"o":"m 590 778 l 732 778 l 732 342 q 705 208 732 271 q 632 100 678 146 q 524 27 586 54 q 390 0 461 0 q 257 27 319 0 q 148 100 194 54 q 74 208 101 146 q 47 342 47 271 l 47 778 l 190 778 l 190 342 q 206 264 190 300 q 249 201 222 228 q 313 158 276 174 q 390 142 349 142 q 468 158 432 142 q 531 201 504 174 q 574 264 558 228 q 590 342 590 300 l 590 778 z "},"ú":{"ha":781,"x_min":47,"x_max":732,"o":"m 590 778 l 732 778 l 732 342 q 705 208 732 271 q 632 100 678 146 q 524 27 586 54 q 390 0 461 0 q 257 27 319 0 q 148 100 194 54 q 74 208 101 146 q 47 342 47 271 l 47 778 l 190 778 l 190 342 q 206 264 190 300 q 249 201 222 228 q 313 158 276 174 q 390 142 349 142 q 468 158 432 142 q 531 201 504 174 q 574 264 558 228 q 590 342 590 300 l 590 778 m 364 865 l 297 893 l 361 1046 l 428 1019 l 364 865 z "},"ű":{"ha":781,"x_min":47,"x_max":732,"o":"m 590 778 l 732 778 l 732 342 q 705 208 732 271 q 632 100 678 146 q 524 27 586 54 q 390 0 461 0 q 257 27 319 0 q 148 100 194 54 q 74 208 101 146 q 47 342 47 271 l 47 778 l 190 778 l 190 342 q 206 264 190 300 q 249 201 222 228 q 313 158 276 174 q 390 142 349 142 q 468 158 432 142 q 531 201 504 174 q 574 264 558 228 q 590 342 590 300 l 590 778 z "},"ü":{"ha":781,"x_min":47,"x_max":732,"o":"m 590 778 l 732 778 l 732 342 q 705 208 732 271 q 632 100 678 146 q 524 27 586 54 q 390 0 461 0 q 257 27 319 0 q 148 100 194 54 q 74 208 101 146 q 47 342 47 271 l 47 778 l 190 778 l 190 342 q 206 264 190 300 q 249 201 222 228 q 313 158 276 174 q 390 142 349 142 q 468 158 432 142 q 531 201 504 174 q 574 264 558 228 q 590 342 590 300 l 590 778 m 276 839 q 239 854 254 839 q 224 892 224 869 q 239 928 224 914 q 276 943 254 943 q 313 928 299 943 q 328 892 328 914 q 313 854 328 869 q 276 839 299 839 m 428 839 q 390 854 406 839 q 375 892 375 869 q 390 928 375 914 q 428 943 406 943 q 464 928 449 943 q 479 892 479 914 q 464 854 479 869 q 428 839 449 839 z "},"ý":{"ha":689,"x_min":-6,"x_max":696,"o":"m 696 779 l 667 738 l 417 385 l 417 385 l 417 0 l 275 0 l 275 376 l 19 738 l -6 775 l 0 779 l 165 779 l 343 526 l 522 779 l 696 779 m 349 861 l 282 889 l 346 1042 l 413 1015 l 349 861 z "},"ţ":{"ha":1157,"x_min":0,"x_max":0,"o":""},"¼":{"ha":1360,"x_min":61,"x_max":1297,"o":"m 61 10 l 61 788 l 203 788 l 203 10 l 61 10 m 274 -18 l 542 847 l 678 804 l 410 -60 l 274 -18 m 1097 786 l 1297 786 l 1297 10 l 1156 10 l 1156 149 l 713 149 l 1097 786 m 1156 606 l 965 290 l 1156 290 l 1156 606 z "},"½":{"ha":1283,"x_min":61,"x_max":1247,"o":"m 61 10 l 61 788 l 203 788 l 203 10 l 61 10 m 274 -18 l 542 847 l 678 804 l 410 -60 l 274 -18 m 1219 649 q 1236 519 1247 585 q 1179 400 1225 453 l 957 149 l 1219 149 l 1219 7 l 765 7 l 764 146 l 1072 496 q 1089 594 1111 539 q 1008 649 1065 646 l 1006 649 q 919 613 956 649 q 883 528 883 578 l 742 528 q 763 630 742 582 q 819 713 783 678 q 902 769 854 749 q 1004 790 950 790 l 1011 790 q 1134 751 1079 788 q 1217 651 1189 714 l 1219 649 z "},"¾":{"ha":1675,"x_min":25,"x_max":1613,"o":"m 447 425 q 513 338 489 389 q 535 228 538 286 q 510 133 532 178 q 453 56 489 89 q 372 5 418 24 q 272 -14 325 -14 l 263 -14 q 115 36 179 -10 q 25 154 51 82 l 158 203 q 200 151 169 171 q 268 128 231 131 q 315 134 293 126 q 354 156 338 142 q 381 190 371 171 q 392 232 392 210 q 359 310 393 276 q 275 346 325 343 q 226 339 251 347 l 178 472 q 260 489 217 486 l 260 490 q 333 514 303 488 q 364 575 364 540 q 340 638 367 610 q 269 669 313 667 q 217 658 240 669 q 179 622 193 646 l 57 696 q 149 783 90 751 q 275 811 207 814 q 365 790 322 808 q 440 739 408 772 q 491 661 474 704 q 506 571 508 618 q 446 426 501 489 l 447 425 m 589 -18 l 857 847 l 993 804 l 725 -60 l 589 -18 m 1413 786 l 1613 786 l 1613 10 l 1471 10 l 1471 149 l 1028 149 l 1413 786 m 1471 606 l 1281 290 l 1471 290 l 1471 606 z "},"À":{"ha":764,"x_min":3,"x_max":764,"o":"m 764 0 l 613 0 l 525 242 l 383 636 l 383 636 l 153 0 l 3 0 l 11 25 l 283 779 l 483 779 l 658 290 l 754 25 l 764 0 m 364 886 l 300 1038 l 367 1063 l 429 913 l 364 886 z "},"Ã":{"ha":764,"x_min":3,"x_max":764,"o":"m 764 0 l 613 0 l 525 242 l 383 636 l 383 636 l 153 0 l 3 0 l 11 25 l 283 779 l 483 779 l 658 290 l 754 25 l 764 0 m 339 960 q 388 972 363 965 q 440 977 414 978 q 492 967 467 976 q 543 933 518 958 l 492 882 q 435 905 467 907 q 358 890 404 903 q 315 878 338 883 q 268 874 292 874 q 222 881 244 874 q 179 910 199 889 l 231 960 q 274 946 249 943 q 340 960 300 949 l 339 960 z "},"Å":{"ha":764,"x_min":3,"x_max":764,"o":"m 764 0 l 613 0 l 525 242 l 383 636 l 383 636 l 153 0 l 3 0 l 11 25 l 283 779 l 483 779 l 658 290 l 754 25 l 764 0 z "},"Æ":{"ha":1369,"x_min":3,"x_max":1328,"o":"m 764 0 l 613 0 l 525 242 l 383 636 l 383 636 l 153 0 l 3 0 l 11 25 l 283 779 l 483 779 l 658 290 l 754 25 l 764 0 m 953 635 l 953 458 l 1328 458 l 1328 317 l 953 317 l 953 317 l 811 317 l 811 776 l 953 776 l 953 776 l 1328 776 l 1328 635 l 953 635 m 1328 142 l 1328 0 l 953 0 l 953 0 l 811 0 l 811 142 l 1328 142 z "},"È":{"ha":606,"x_min":47,"x_max":564,"o":"m 189 635 l 189 458 l 564 458 l 564 317 l 189 317 l 189 317 l 47 317 l 47 776 l 189 776 l 189 776 l 564 776 l 564 635 l 189 635 m 564 142 l 564 0 l 189 0 l 189 0 l 47 0 l 47 142 l 564 142 m 286 868 l 222 1019 l 289 1044 l 351 894 l 286 868 z "},"Ê":{"ha":606,"x_min":47,"x_max":564,"o":"m 189 635 l 189 458 l 564 458 l 564 317 l 189 317 l 189 317 l 47 317 l 47 776 l 189 776 l 189 776 l 564 776 l 564 635 l 189 635 m 564 142 l 564 0 l 189 0 l 189 0 l 47 0 l 47 142 l 564 142 m 411 921 l 353 878 l 292 960 l 217 881 l 164 929 l 297 1071 l 411 921 z "},"Ì":{"ha":336,"x_min":32,"x_max":303,"o":"m 303 776 l 303 635 l 32 635 l 32 776 l 97 776 l 97 776 l 240 776 l 240 776 l 303 776 m 240 142 l 303 142 l 303 -1 l 32 -1 l 32 142 l 97 142 l 97 542 l 240 542 l 240 142 m 157 878 l 93 1029 l 160 1054 l 222 904 l 157 878 z "},"Ï":{"ha":336,"x_min":32,"x_max":303,"o":"m 303 776 l 303 635 l 32 635 l 32 776 l 97 776 l 97 776 l 240 776 l 240 776 l 303 776 m 240 142 l 303 142 l 303 -1 l 32 -1 l 32 142 l 97 142 l 97 542 l 240 542 l 240 142 m 85 856 q 47 871 63 856 q 32 908 32 886 q 47 945 32 931 q 85 960 63 960 q 122 945 107 960 q 136 908 136 931 q 122 871 136 886 q 85 856 107 856 m 236 856 q 199 871 214 856 q 183 908 183 886 q 199 945 183 931 q 236 960 214 960 q 272 945 257 960 q 288 908 288 931 q 272 871 288 886 q 236 856 257 856 z "},"Ð":{"ha":671,"x_min":56,"x_max":628,"o":"m 354 778 q 461 756 411 778 q 548 697 511 735 q 606 610 585 660 q 628 503 628 560 l 628 275 q 606 168 628 218 q 548 81 585 118 q 461 22 511 43 q 354 0 411 0 l 56 0 l 56 142 l 354 142 q 405 152 381 142 q 447 181 429 163 q 476 223 465 199 q 486 275 486 247 l 486 503 q 476 555 486 531 q 447 597 465 579 q 405 626 429 615 q 354 636 381 636 l 197 636 l 197 282 l 56 282 l 56 778 l 356 778 l 354 778 m 228 176 l 232 247 l 443 251 l 439 181 l 228 176 z "},"Ñ":{"ha":692,"x_min":61,"x_max":636,"o":"m 636 778 l 636 183 l 494 501 l 494 778 l 636 778 m 263 776 l 624 0 l 460 0 l 203 563 l 203 0 l 61 0 l 61 776 l 263 776 m 304 1042 q 353 1053 328 1047 q 406 1059 379 1060 q 458 1049 432 1058 q 508 1015 483 1040 l 457 964 q 401 987 432 989 q 324 972 369 985 q 280 960 303 965 q 233 956 257 956 q 187 963 210 956 q 144 992 164 971 l 196 1042 q 240 1028 214 1025 q 306 1042 265 1031 l 304 1042 z "},"Ò":{"ha":825,"x_min":21,"x_max":808,"o":"m 417 642 q 325 625 368 642 q 248 578 282 608 q 192 508 214 549 q 164 421 169 468 l 21 421 q 60 563 26 497 q 147 678 93 629 q 268 755 200 726 q 414 783 336 783 q 560 755 492 783 q 683 678 629 726 q 769 563 736 629 q 808 421 801 497 l 664 421 q 635 508 657 468 q 581 578 614 549 q 504 625 547 608 q 413 642 461 642 l 417 642 m 417 135 q 562 181 499 135 q 653 297 625 226 l 803 297 q 751 176 788 232 q 664 80 715 121 q 549 16 613 39 q 417 -7 486 -7 q 284 16 347 -7 q 169 80 221 39 q 82 176 118 121 q 31 297 46 232 l 181 297 q 272 181 208 226 q 417 135 335 135 m 379 957 l 315 1108 l 382 1133 l 444 983 l 379 957 z "},"Õ":{"ha":825,"x_min":21,"x_max":808,"o":"m 417 642 q 325 625 368 642 q 248 578 282 608 q 192 508 214 549 q 164 421 169 468 l 21 421 q 60 563 26 497 q 147 678 93 629 q 268 755 200 726 q 414 783 336 783 q 560 755 492 783 q 683 678 629 726 q 769 563 736 629 q 808 421 801 497 l 664 421 q 635 508 657 468 q 581 578 614 549 q 504 625 547 608 q 413 642 461 642 l 417 642 m 417 135 q 562 181 499 135 q 653 297 625 226 l 803 297 q 751 176 788 232 q 664 80 715 121 q 549 16 613 39 q 417 -7 486 -7 q 284 16 347 -7 q 169 80 221 39 q 82 176 118 121 q 31 297 46 232 l 181 297 q 272 181 208 226 q 417 135 335 135 m 354 1031 q 403 1042 378 1036 q 456 1048 429 1049 q 508 1038 482 1047 q 558 1004 533 1029 l 507 953 q 451 976 482 978 q 374 961 419 974 q 330 949 353 954 q 283 944 307 944 q 237 952 260 944 q 194 981 214 960 l 246 1031 q 290 1017 264 1014 q 356 1031 315 1019 l 354 1031 z "},"Ø":{"ha":825,"x_min":21,"x_max":808,"o":"m 417 642 q 325 625 368 642 q 248 578 282 608 q 192 508 214 549 q 164 421 169 468 l 21 421 q 60 563 26 497 q 147 678 93 629 q 268 755 200 726 q 414 783 336 783 q 560 755 492 783 q 683 678 629 726 q 769 563 736 629 q 808 421 801 497 l 664 421 q 635 508 657 468 q 581 578 614 549 q 504 625 547 608 q 413 642 461 642 l 417 642 m 417 135 q 562 181 499 135 q 653 297 625 226 l 803 297 q 751 176 788 232 q 664 80 715 121 q 549 16 613 39 q 417 -7 486 -7 q 284 16 347 -7 q 169 80 221 39 q 82 176 118 121 q 31 297 46 232 l 181 297 q 272 181 208 226 q 417 135 335 135 m 210 -18 l 478 847 l 614 804 l 346 -60 l 210 -18 z "},"Ù":{"ha":779,"x_min":47,"x_max":731,"o":"m 189 342 q 224 229 189 279 q 313 157 258 179 l 313 8 q 207 52 256 21 q 123 128 158 83 q 67 226 88 172 q 47 342 47 281 l 47 778 l 189 778 l 189 342 m 731 776 l 731 342 q 708 219 731 276 q 647 117 686 163 q 555 42 608 72 q 440 3 501 13 l 440 149 q 547 218 504 165 q 589 342 589 271 l 589 776 l 731 776 m 364 907 l 300 1058 l 367 1083 l 429 933 l 364 907 z "},"Û":{"ha":779,"x_min":47,"x_max":731,"o":"m 189 342 q 224 229 189 279 q 313 157 258 179 l 313 8 q 207 52 256 21 q 123 128 158 83 q 67 226 88 172 q 47 342 47 281 l 47 778 l 189 778 l 189 342 m 731 776 l 731 342 q 708 219 731 276 q 647 117 686 163 q 555 42 608 72 q 440 3 501 13 l 440 149 q 547 218 504 165 q 589 342 589 271 l 589 776 l 731 776 m 489 960 l 431 917 l 369 999 l 294 919 l 242 968 l 375 1110 l 489 960 z "},"Þ":{"ha":1157,"x_min":0,"x_max":0,"o":""},"ß":{"ha":1157,"x_min":0,"x_max":0,"o":""},"à":{"ha":764,"x_min":1,"x_max":763,"o":"m 658 290 l 763 0 l 611 0 l 542 194 l 222 194 l 153 0 l 1 0 l 282 778 l 482 778 l 658 290 m 489 336 l 381 636 l 381 636 l 274 336 l 489 336 m 368 890 l 304 1042 l 371 1067 l 433 917 l 368 890 z "},"ã":{"ha":764,"x_min":1,"x_max":763,"o":"m 658 290 l 763 0 l 611 0 l 542 194 l 222 194 l 153 0 l 1 0 l 282 778 l 482 778 l 658 290 m 489 336 l 381 636 l 381 636 l 274 336 l 489 336 m 343 964 q 392 976 367 969 q 444 981 418 982 q 497 972 471 981 q 547 938 522 963 l 496 886 q 440 909 471 911 q 363 894 408 907 q 319 883 342 888 q 272 878 296 878 q 226 885 249 878 q 183 914 203 893 l 235 964 q 278 950 253 947 q 344 964 304 953 l 343 964 z "},"å":{"ha":764,"x_min":1,"x_max":763,"o":"m 658 290 l 763 0 l 611 0 l 542 194 l 222 194 l 153 0 l 1 0 l 282 778 l 482 778 l 658 290 m 489 336 l 381 636 l 381 636 l 274 336 l 489 336 z "},"æ":{"ha":1393,"x_min":1,"x_max":1344,"o":"m 658 290 l 763 0 l 611 0 l 542 194 l 222 194 l 153 0 l 1 0 l 282 778 l 482 778 l 658 290 m 489 336 l 381 636 l 381 636 l 274 336 l 489 336 m 968 778 l 1344 778 l 1344 636 l 968 636 l 968 460 l 1344 460 l 1344 318 l 968 318 l 968 142 l 1344 142 l 1344 0 l 968 0 l 968 0 l 826 0 l 826 778 l 968 778 l 968 778 z "},"è":{"ha":629,"x_min":63,"x_max":581,"o":"m 204 778 l 581 778 l 581 636 l 204 636 l 204 460 l 581 460 l 581 318 l 204 318 l 204 142 l 581 142 l 581 0 l 204 0 l 204 0 l 63 0 l 63 778 l 204 778 l 204 778 m 300 910 l 236 1061 l 303 1086 l 365 936 l 300 910 z "},"ê":{"ha":629,"x_min":63,"x_max":581,"o":"m 204 778 l 581 778 l 581 636 l 204 636 l 204 460 l 581 460 l 581 318 l 204 318 l 204 142 l 581 142 l 581 0 l 204 0 l 204 0 l 63 0 l 63 778 l 204 778 l 204 778 m 425 963 l 367 919 l 306 1001 l 231 922 l 178 971 l 311 1113 l 425 963 z "},"ì":{"ha":344,"x_min":36,"x_max":307,"o":"m 244 778 l 307 778 l 307 636 l 244 636 l 244 143 l 307 143 l 307 1 l 36 1 l 36 143 l 103 143 l 103 636 l 36 636 l 36 778 l 103 778 l 103 778 l 244 778 l 244 778 m 153 914 l 89 1065 l 156 1090 l 218 940 l 153 914 z "},"ï":{"ha":344,"x_min":28,"x_max":307,"o":"m 244 778 l 307 778 l 307 636 l 244 636 l 244 143 l 307 143 l 307 1 l 36 1 l 36 143 l 103 143 l 103 636 l 36 636 l 36 778 l 103 778 l 103 778 l 244 778 l 244 778 m 81 892 q 43 907 58 892 q 28 944 28 922 q 43 981 28 967 q 81 996 58 996 q 117 981 103 996 q 132 944 132 967 q 117 907 132 922 q 81 892 103 892 m 232 892 q 194 907 210 892 q 179 944 179 922 q 194 981 179 967 q 232 996 210 996 q 268 981 253 996 q 283 944 283 967 q 268 907 283 922 q 232 892 253 892 z "},"ð":{"ha":608,"x_min":36,"x_max":564,"o":"m 300 794 q 403 774 354 794 q 487 717 451 753 q 543 633 522 681 q 564 531 564 585 q 481 168 564 301 q 353 43 431 88 q 263 9 311 21 q 158 -3 214 -3 l 158 140 q 203 142 175 140 q 262 157 231 144 q 324 197 293 169 q 379 276 356 225 q 340 267 360 271 q 300 264 321 264 q 197 285 246 264 q 113 342 149 306 q 57 426 78 378 q 36 529 36 475 q 57 632 36 583 q 113 716 78 681 q 197 772 149 751 q 300 793 246 793 l 300 794 m 301 408 q 388 444 353 408 q 424 531 424 481 q 388 617 424 581 q 301 653 353 653 q 215 617 250 653 q 179 531 179 581 q 215 444 179 481 q 300 408 250 408 l 301 408 z "},"ñ":{"ha":701,"x_min":63,"x_max":639,"o":"m 497 778 l 639 778 l 639 0 l 461 0 l 204 563 l 204 0 l 63 0 l 63 776 l 264 776 l 496 267 l 497 778 m 317 961 q 366 973 340 967 q 418 978 392 979 q 470 969 444 978 q 521 935 496 960 l 469 883 q 413 906 444 908 q 336 892 382 904 q 292 880 315 885 q 246 875 269 875 q 199 883 222 875 q 157 911 176 890 l 208 961 q 252 947 226 944 q 318 961 278 950 l 317 961 z "},"ò":{"ha":847,"x_min":26,"x_max":819,"o":"m 424 785 q 578 753 506 785 q 703 668 650 722 q 788 542 757 614 q 819 388 819 469 q 788 233 819 306 q 703 108 757 161 q 578 23 650 54 q 424 -8 506 -8 q 269 23 342 -8 q 143 108 197 54 q 58 233 89 161 q 26 388 26 306 q 58 542 26 469 q 143 668 89 614 q 269 753 197 722 q 424 785 342 785 m 424 135 q 522 154 476 135 q 603 208 568 174 q 657 289 638 243 q 676 388 676 335 q 657 487 676 440 q 603 567 638 533 q 522 622 568 601 q 424 642 476 642 q 324 622 371 642 q 244 567 278 601 q 190 487 210 533 q 169 388 169 440 q 190 289 169 335 q 244 208 210 243 q 324 154 278 174 q 424 135 371 135 m 406 917 l 342 1068 l 408 1093 l 471 943 l 406 917 z "},"õ":{"ha":847,"x_min":26,"x_max":819,"o":"m 424 785 q 578 753 506 785 q 703 668 650 722 q 788 542 757 614 q 819 388 819 469 q 788 233 819 306 q 703 108 757 161 q 578 23 650 54 q 424 -8 506 -8 q 269 23 342 -8 q 143 108 197 54 q 58 233 89 161 q 26 388 26 306 q 58 542 26 469 q 143 668 89 614 q 269 753 197 722 q 424 785 342 785 m 424 135 q 522 154 476 135 q 603 208 568 174 q 657 289 638 243 q 676 388 676 335 q 657 487 676 440 q 603 567 638 533 q 522 622 568 601 q 424 642 476 642 q 324 622 371 642 q 244 567 278 601 q 190 487 210 533 q 169 388 169 440 q 190 289 169 335 q 244 208 210 243 q 324 154 278 174 q 424 135 371 135 m 381 990 q 430 1002 404 996 q 482 1008 456 1008 q 534 998 508 1007 q 585 964 560 989 l 533 913 q 477 935 508 938 q 400 921 446 933 q 356 909 379 914 q 310 904 333 904 q 263 912 286 904 q 221 940 240 919 l 272 990 q 316 976 290 974 q 382 990 342 979 l 381 990 z "},"ø":{"ha":847,"x_min":26,"x_max":819,"o":"m 424 785 q 578 753 506 785 q 703 668 650 722 q 788 542 757 614 q 819 388 819 469 q 788 233 819 306 q 703 108 757 161 q 578 23 650 54 q 424 -8 506 -8 q 269 23 342 -8 q 143 108 197 54 q 58 233 89 161 q 26 388 26 306 q 58 542 26 469 q 143 668 89 614 q 269 753 197 722 q 424 785 342 785 m 424 135 q 522 154 476 135 q 603 208 568 174 q 657 289 638 243 q 676 388 676 335 q 657 487 676 440 q 603 567 638 533 q 522 622 568 601 q 424 642 476 642 q 324 622 371 642 q 244 567 278 601 q 190 487 210 533 q 169 388 169 440 q 190 289 169 335 q 244 208 210 243 q 324 154 278 174 q 424 135 371 135 m 221 -18 l 489 847 l 625 804 l 357 -60 l 221 -18 z "},"ù":{"ha":781,"x_min":47,"x_max":732,"o":"m 590 778 l 732 778 l 732 342 q 705 208 732 271 q 632 100 678 146 q 524 27 586 54 q 390 0 461 0 q 257 27 319 0 q 148 100 194 54 q 74 208 101 146 q 47 342 47 271 l 47 778 l 190 778 l 190 342 q 206 264 190 300 q 249 201 222 228 q 313 158 276 174 q 390 142 349 142 q 468 158 432 142 q 531 201 504 174 q 574 264 558 228 q 590 342 590 300 l 590 778 m 349 861 l 285 1013 l 351 1038 l 414 888 l 349 861 z "},"û":{"ha":781,"x_min":47,"x_max":732,"o":"m 590 778 l 732 778 l 732 342 q 705 208 732 271 q 632 100 678 146 q 524 27 586 54 q 390 0 461 0 q 257 27 319 0 q 148 100 194 54 q 74 208 101 146 q 47 342 47 271 l 47 778 l 190 778 l 190 342 q 206 264 190 300 q 249 201 222 228 q 313 158 276 174 q 390 142 349 142 q 468 158 432 142 q 531 201 504 174 q 574 264 558 228 q 590 342 590 300 l 590 778 m 474 914 l 415 871 l 354 953 l 279 874 l 226 922 l 360 1064 l 474 914 z "},"þ":{"ha":192,"x_min":-194,"x_max":386,"o":"m 28 -85 l 25 781 l 161 822 l 164 -42 l 28 -85 m 307 417 q 365 341 343 385 q 386 247 386 297 l 386 221 q 369 134 386 175 q 321 63 351 93 q 249 15 290 32 q 163 -3 208 -3 l -194 -3 l -194 776 l 131 776 q 217 759 176 776 q 289 711 258 742 q 337 640 319 681 q 354 553 354 599 q 308 418 354 476 l 307 417 m -40 469 l 129 469 q 187 493 163 469 q 211 551 211 517 q 187 610 211 586 q 129 633 163 633 l -40 633 l -40 469 m 244 243 q 220 301 244 278 q 163 325 196 325 l -54 325 l -54 136 l 163 136 q 220 160 196 136 q 244 219 244 185 l 244 243 z "},"ÿ":{"ha":689,"x_min":-6,"x_max":696,"o":"m 696 779 l 667 738 l 417 385 l 417 385 l 417 0 l 275 0 l 275 376 l 19 738 l -6 775 l 0 779 l 165 779 l 343 526 l 522 779 l 696 779 m 261 835 q 224 850 239 835 q 208 888 208 865 q 224 924 208 910 q 261 939 239 939 q 298 924 283 939 q 313 888 313 910 q 298 850 313 865 q 261 835 283 835 m 413 835 q 375 850 390 835 q 360 888 360 865 q 375 924 360 910 q 413 939 390 939 q 449 924 433 939 q 464 888 464 910 q 449 850 464 865 q 413 835 433 835 z "}}}
